<?xml version="1.0" standalone="no"?>
<!DOCTYPE svg PUBLIC "-//W3C//DTD SVG 1.1//EN" "http://www.w3.org/Graphics/SVG/1.1/DTD/svg11.dtd" >
<svg xmlns="http://www.w3.org/2000/svg">
<metadata>
<json>
<![CDATA[
{
	"fontFamily": "m4",
	"majorVersion": 1,
	"minorVersion": 0,
	"version": "Version 1.0",
	"fontId": "m4",
	"psName": "m4",
	"subFamily": "Regular",
	"fullName": "m4",
	"description": "Font generated by IcoMoon."
}
]]>
</json>
</metadata>
<defs>
<font id="m4" horiz-adv-x="512">
<font-face units-per-em="512" ascent="480" descent="-32" />
<missing-glyph horiz-adv-x="512" />
<glyph unicode="&#x20;" horiz-adv-x="256" d="" />
<glyph unicode="&#xe900;" glyph-name="erp-adjustment" data-tags="erp-adjustment" d="M224 437.334c-17.664 0-32-14.336-32-32v-10.666h-128c-0.090 0.001-0.196 0.002-0.301 0.002-11.783 0-21.336-9.552-21.336-21.335s9.552-21.336 21.335-21.336c0.106 0 0.212 0.001 0.317 0.002h127.984v-10.666c0-17.664 14.336-32 32-32s32 14.336 32 32v64c0 17.664-14.336 32-32 32zM298.666 394.666v-42.666h149.334c11.782 0 21.334 9.552 21.334 21.334v0c0 11.782-9.551 21.334-21.334 21.334v0h-149.333zM330.666 288c-17.664 0-32-14.336-32-32v-10.666h-234.667c-0.090 0.001-0.196 0.002-0.301 0.002-11.783 0-21.336-9.552-21.336-21.335s9.552-21.335 21.335-21.335c0.106 0 0.212 0.001 0.317 0.002h234.651v-10.666c0-17.664 14.336-32 32-32s32 14.336 32 32v64c0 17.664-14.336 32-32 32zM405.334 245.333v-42.667h42.666c11.782 0 21.334 9.551 21.334 21.334v0c0 11.782-9.551 21.334-21.334 21.334v0h-42.666zM117.334 138.666c-17.664 0-32-14.336-32-32v-10.666h-21.334c-0.090 0.002-0.196 0.002-0.301 0.002-11.783 0-21.336-9.552-21.336-21.336s9.552-21.336 21.335-21.336c0.106 0 0.212 0.001 0.317 0.002h21.317v-10.666c0-17.664 14.336-32 32-32s32 14.336 32 32v64c0 17.664-14.336 32-32 32zM192 96v-42.666h256c11.782 0 21.334 9.551 21.334 21.334v0c0 11.782-9.551 21.334-21.334 21.334v0h-256z" />
<glyph unicode="&#xe901;" glyph-name="erp-composition" data-tags="erp-composition" d="M51.2 439.040c-28.16 0-51.2-23.040-51.2-51.2v-296.96c0-28.16 23.040-51.2 51.2-51.2h163.84c17.040 0 30.72-13.84 30.72-30.72 0-3.16 1.48-6.16 3.96-8.080 2.52-1.96 5.76-2.64 8.84-1.84 2.68 0.68 5 2.4 6.4 4.8 0.88 1.56 1.32 3.32 1.28 5.12 0 16.88 13.68 30.72 30.72 30.72h163.84c28.16 0 51.2 23.040 51.2 51.2v296.96c0 28.16-23.040 51.2-51.2 51.2h-163.84c-16.72 0-31.6-8.32-40.96-20.8-9.36 12.48-24.24 20.8-40.96 20.8zM51.2 418.56h163.84c17.080 0 30.72-13.64 30.72-30.72v-339.2c-8.68 6.76-18.96 11.52-30.72 11.52h-163.84c-17.080 0-30.72 13.64-30.72 30.72v296.96c0 17.080 13.64 30.72 30.72 30.72zM296.96 418.56h163.84c17.080 0 30.72-13.64 30.72-30.72v-296.96c0-17.080-13.64-30.72-30.72-30.72h-163.84c-11.76 0-22.040-4.76-30.72-11.52v339.2c0 17.080 13.64 30.72 30.72 30.72zM127.040 387.84c-10.12 0-18.92-4.52-25.92-10.88s-12.4-14.32-16.64-23.36c-8.48-18.040-12.8-39.6-12.8-57.92 0-26.080 9.6-41.040 18.56-49.28 4.48-4.12 8.4-6.8 10.24-8.64s1.92-1.64 1.92-3.52v-81.92c0-22.12 0.76-35.2 4.16-45.12 1.68-4.96 4.44-9.52 8.64-12.48s9.16-3.84 13.12-3.84c4.36 0 9.44 1.16 13.44 4.48s6.44 7.8 8 12.8c3.12 10 3.84 23.36 3.84 44.16v81.92c0 1.88-0.2 1.72 1.6 3.52s5.72 4.24 10.24 8.32c9.040 8.16 18.88 23.12 18.88 49.6 0 19.64-4.76 41.080-13.76 58.88s-23.6 33.28-43.52 33.28zM127.040 367.36c9.080 0 18.080-7.56 25.28-21.76s11.52-33.72 11.52-49.92c0-22.16-5.52-28.52-11.84-34.24-3.16-2.84-6.92-5.4-10.88-9.28s-8-10.44-8-17.92v-81.92c0-20.16-1.2-32.4-2.88-37.76-0.84-2.68-1.76-3.32-1.6-3.2s0.88 0-0.32 0c-1.6 0-1.52 0.16-1.28 0s-0.12-0.16-0.96 2.24c-1.64 4.8-3.2 17.32-3.2 38.72v81.92c0 7.48-3.76 13.96-7.68 17.92s-7.68 6.68-10.88 9.6c-6.4 5.84-12.16 12.2-12.16 33.92 0 14.96 4 34.36 10.88 48.96 3.44 7.28 7.64 13.48 11.84 17.28s7.76 5.44 12.16 5.44zM304.32 357.12c-5.64-0.8-9.6-6.040-8.8-11.68s6.040-9.6 11.68-8.8h92.16c3.68-0.040 7.12 1.88 9 5.080 1.84 3.2 1.84 7.12 0 10.32-1.88 3.2-5.32 5.12-9 5.080h-92.16c-0.32 0-0.64 0-0.96 0s-0.64 0-0.96 0c-0.32 0-0.64 0-0.96 0zM437.44 357.12c-5.64-0.8-9.6-6.040-8.8-11.68s6.040-9.6 11.68-8.8h10.24c3.68-0.040 7.12 1.88 9 5.080 1.84 3.2 1.84 7.12 0 10.32-1.88 3.2-5.32 5.12-9 5.080h-10.24c-0.32 0-0.64 0-0.96 0s-0.64 0-0.96 0c-0.32 0-0.64 0-0.96 0zM304.32 305.92c-5.64-0.8-9.6-6.040-8.8-11.68s6.040-9.6 11.68-8.8h92.16c3.68-0.040 7.12 1.88 9 5.080 1.84 3.2 1.84 7.12 0 10.32-1.88 3.2-5.32 5.12-9 5.080h-92.16c-0.32 0-0.64 0-0.96 0s-0.64 0-0.96 0c-0.32 0-0.64 0-0.96 0zM437.44 305.92c-5.64-0.8-9.6-6.040-8.8-11.68s6.040-9.6 11.68-8.8h10.24c3.68-0.040 7.12 1.88 9 5.080 1.84 3.2 1.84 7.12 0 10.32-1.88 3.2-5.32 5.12-9 5.080h-10.24c-0.32 0-0.64 0-0.96 0s-0.64 0-0.96 0c-0.32 0-0.64 0-0.96 0zM304.32 254.72c-5.64-0.8-9.6-6.040-8.8-11.68s6.040-9.6 11.68-8.8h92.16c3.68-0.040 7.12 1.88 9 5.080 1.84 3.2 1.84 7.12 0 10.32-1.88 3.2-5.32 5.12-9 5.080h-92.16c-0.32 0-0.64 0-0.96 0s-0.64 0-0.96 0c-0.32 0-0.64 0-0.96 0zM437.44 254.72c-5.64-0.8-9.6-6.040-8.8-11.68s6.040-9.6 11.68-8.8h10.24c3.68-0.040 7.12 1.88 9 5.080 1.84 3.2 1.84 7.12 0 10.32-1.88 3.2-5.32 5.12-9 5.080h-10.24c-0.32 0-0.64 0-0.96 0s-0.64 0-0.96 0c-0.32 0-0.64 0-0.96 0zM304.32 203.52c-5.64-0.8-9.6-6.040-8.8-11.68s6.040-9.6 11.68-8.8h92.16c3.68-0.040 7.12 1.88 9 5.080 1.84 3.2 1.84 7.12 0 10.32-1.88 3.2-5.32 5.12-9 5.080h-92.16c-0.32 0-0.64 0-0.96 0s-0.64 0-0.96 0c-0.32 0-0.64 0-0.96 0zM437.44 203.52c-5.64-0.8-9.6-6.040-8.8-11.68s6.040-9.6 11.68-8.8h10.24c3.68-0.040 7.12 1.88 9 5.080 1.84 3.2 1.84 7.12 0 10.32-1.88 3.2-5.32 5.12-9 5.080h-10.24c-0.32 0-0.64 0-0.96 0s-0.64 0-0.96 0c-0.32 0-0.64 0-0.96 0zM304.32 152.32c-5.64-0.8-9.6-6.040-8.8-11.68s6.040-9.6 11.68-8.8h92.16c3.68-0.040 7.12 1.88 9 5.080 1.84 3.2 1.84 7.12 0 10.32-1.88 3.2-5.32 5.12-9 5.080h-92.16c-0.32 0-0.64 0-0.96 0s-0.64 0-0.96 0c-0.32 0-0.64 0-0.96 0zM437.44 152.32c-5.64-0.8-9.6-6.040-8.8-11.68s6.040-9.6 11.68-8.8h10.24c3.68-0.040 7.12 1.88 9 5.080 1.84 3.2 1.84 7.12 0 10.32-1.88 3.2-5.32 5.12-9 5.080h-10.24c-0.32 0-0.64 0-0.96 0s-0.64 0-0.96 0c-0.32 0-0.64 0-0.96 0z" />
<glyph unicode="&#xe902;" glyph-name="erp-configuration" data-tags="erp-configuration" d="M362.666 458.666c23.574 0 42.666-19.094 42.666-42.666v-176.281c-11.892 3.049-24.358 4.671-37.201 4.671-1.83 0-3.652-0.033-5.466-0.098v171.709h-213.333v-213.333h115.26c-28.229-27.168-45.793-65.338-45.793-107.611 0-41.303 16.767-78.688 43.867-105.722h-113.332c-23.573 0-42.666 19.094-42.666 42.666v384c0 23.574 19.093 42.666 42.666 42.666zM320 373.334v-42.666h-128v42.666zM320 288v-42.666h-128v42.666zM451.823 78.842c1.024 5.269 1.642 10.666 1.642 16.214s-0.618 10.944-1.642 16.214l17.216 12.779c2.197 1.642 2.837 4.672 1.45 7.040l-19.968 34.603c-1.365 2.368-4.31 3.349-6.827 2.262l-19.968-8.64c-8.086 6.998-17.43 12.459-27.755 16.043l-2.496 21.589c-0.32 2.731-2.624 4.779-5.376 4.779h-39.936c-2.752 0-5.056-2.048-5.376-4.779l-2.496-21.589c-10.325-3.584-19.669-9.046-27.755-16.043l-19.968 8.64c-2.517 1.088-5.462 0.106-6.827-2.262l-19.968-34.603c-1.365-2.368-0.747-5.397 1.45-7.040l17.216-12.779c-1.024-5.269-1.642-10.666-1.642-16.214s0.618-10.944 1.642-16.214l-17.216-12.779c-2.197-1.642-2.837-4.672-1.45-7.040l19.968-34.582c1.365-2.389 4.31-3.349 6.827-2.262l19.968 8.64c8.086-7.019 17.43-12.48 27.755-16.064l2.496-21.589c0.32-2.731 2.624-4.779 5.376-4.779h39.936c2.752 0 5.056 2.048 5.376 4.779l2.496 21.589c10.325 3.584 19.67 9.046 27.755 16.043l19.968-8.64c2.517-1.088 5.462-0.106 6.827 2.262l19.968 34.582c1.365 2.389 0.747 5.418-1.45 7.040zM368.132 52.389c-23.552 0-42.666 19.115-42.666 42.666 0 23.574 19.115 42.666 42.666 42.666s42.666-19.094 42.666-42.666c0-23.552-19.115-42.666-42.666-42.666z" />
<glyph unicode="&#xe903;" glyph-name="erp-loadOrder" data-tags="erp-loadOrder" d="M64 384c-17.673 0-32-14.327-32-32v0c0-17.673 14.327-32 32-32v0c17.673 0 32 14.327 32 32v0c0 17.673-14.327 32-32 32v0zM170.667 373.334c-11.776 0-21.333-9.558-21.333-21.334s9.558-21.334 21.334-21.334h277.334c11.776 0 21.334 9.558 21.334 21.334s-9.558 21.334-21.334 21.334h-277.334zM64 256c-17.673 0-32-14.327-32-32v0c0-17.673 14.327-32 32-32v0c17.673 0 32 14.327 32 32v0c0 17.673-14.327 32-32 32v0zM170.667 245.333c-11.776 0-21.333-9.558-21.333-21.333s9.558-21.334 21.334-21.334h108.916c26.923 26.368 63.755 42.666 104.416 42.666h-213.333zM384.041 202.666c-57.813 0-106.709-48.895-106.709-106.709 0-59.712 46.933-106.625 106.666-106.625 21.334 0 42.683 6.416 59.75 17.084l32.209-32.25c8.256-8.256 21.619-8.256 29.875 0s8.256 21.619 0 29.875l-32.25 32.209c10.666 17.067 17.084 38.416 17.084 59.75 0 59.733-46.913 106.666-106.625 106.666zM384 160c36.267 0 64-27.733 64-64s-27.733-64-64-64c-36.267 0-64 27.733-64 64s27.733 64 64 64zM64 128c-17.673 0-32-14.327-32-32v0c0-17.673 14.327-32 32-32v0c17.673 0 32 14.327 32 32v0c0 17.673-14.327 32-32 32v0zM170.667 117.334c-11.776 0-21.333-9.558-21.333-21.334s9.558-21.334 21.334-21.334h65.709c-1.002 6.976-1.708 14.080-1.708 21.334s0.706 14.358 1.708 21.334h-65.709z" />
<glyph unicode="&#xe904;" glyph-name="erp-pricetag" data-tags="erp-pricetag" d="M420.308 479.385c-49.923 0-91.077-41.154-91.077-91.077 0-12.077 3-28 5.538-42.462s4.923-26.462 4.923-26.462c0.846-5.538 4.692-10.077 9.923-11.923 5.308-1.846 11.154-0.615 15.231 3.154 4.154 3.769 5.769 9.538 4.385 14.923 0 0-2.538 11.385-4.923 25.231s-4.308 30.692-4.308 37.538c0 33.538 26.769 60.923 60.308 60.923 37.308 0 60.308-28.538 60.308-67.692 0-69.538-30.769-120-30.769-120-4.385-7.154-2.231-16.538 4.923-20.923s16.538-2.231 20.923 4.923c0 0 35.077 57.538 35.077 136 0 52.385-36.846 97.846-90.462 97.846zM259.077 398.154c-15.231-0.231-25.308-0.692-27.077-2.462l-219.692-219.692c-13.539-13.538-13.539-35.769 0-49.231l146.462-146.462c13.538-13.538 35.769-13.538 49.231 0l219.692 219.692c10 10 1.077 107.308-4.923 157.538-3.538 29.385-3.615 29.692-32.615 33.231-4.923 0.615-10.154 1.308-15.385 1.846-0.154-1.308-0.615-3-0.615-4.308 0-6.231 1.462-18.846 3.692-32 10.769-7.462 17.846-19.692 17.846-33.846 0-22.923-18.308-41.231-41.231-41.231s-41.231 18.308-41.231 41.231c0 8.615 2.308 16.769 6.769 23.385-2.538 14.923-4.923 31.538-4.923 42.462 0 2.846 0.385 5.769 0.615 8.615-21.385 1.077-41.385 1.462-56.615 1.231z" />
<glyph unicode="&#xe905;" glyph-name="erp-sync" data-tags="erp-sync" d="M256 428.8c-109.040 0-198.32-85.8-204.24-193.44-0.48-7.36 3-14.4 9.16-18.48 6.16-4.040 14.040-4.48 20.6-1.12s10.84 10 11.12 17.36c4.76 86.36 75.72 154.72 163.36 154.72 46.96 0 89.080-19.72 118.88-51.2h-26.72c-7.4 0.12-14.24-3.76-17.96-10.16-3.76-6.36-3.76-14.28 0-20.64 3.72-6.4 10.56-10.28 17.96-10.16h64.12c2.32-0.4 4.68-0.4 7.040 0h31.24v102.4c0.080 5.52-2.080 10.84-6 14.76s-9.24 6.080-14.8 6c-11.28-0.16-20.32-9.44-20.16-20.76v-38.68c-37.56 42.56-92.52 69.4-153.6 69.4zM440.64 234.52c-11.32 0.48-20.84-8.32-21.28-19.64-4.76-86.36-75.72-154.72-163.36-154.72-46.96 0-89.040 19.72-118.88 51.2h26.72c7.4-0.12 14.24 3.76 17.96 10.16 3.76 6.36 3.76 14.28 0 20.64-3.72 6.4-10.56 10.28-17.96 10.16h-64.32c-2.16 0.32-4.32 0.32-6.48 0h-31.6v-102.4c-0.12-7.4 3.76-14.24 10.16-17.96 6.36-3.76 14.28-3.76 20.64 0 6.4 3.72 10.28 10.56 10.16 17.96v38.68c37.56-42.56 92.52-69.4 153.6-69.4 109.040 0 198.32 85.8 204.24 193.44 0.4 5.52-1.48 10.96-5.16 15.080-3.72 4.12-8.92 6.56-14.44 6.8z" />
<glyph unicode="&#xe906;" glyph-name="erp-wifi-signal" data-tags="erp-wifi-signal" d="M399.385 400c-11.692-0.923-21.769-8.615-25.615-19.692s-0.846-23.385 7.769-31.385c31.846-32 51.692-75.846 51.692-124.923 0-48.923-19.769-92.846-51.692-124.923-11.538-11.538-11.538-30.308 0-41.846s30.308-11.538 41.846 0c42.462 42.692 68.923 102 68.923 166.769 0 64.923-26.462 124.077-68.923 166.769-5.462 5.769-13 9.077-20.923 9.231-1 0.077-2.077 0.077-3.077 0zM105.846 399.385c-6.538-0.846-12.615-3.923-17.231-8.615-42.462-42.692-68.923-102-68.923-166.769 0-64.923 26.462-124.077 68.923-166.769 11.538-11.538 30.308-11.538 41.846 0s11.538 30.308 0 41.846c-31.846 32-51.692 75.846-51.692 124.923 0 48.923 19.769 92.846 51.692 124.923 9.154 8.923 11.538 22.692 6 34.154-5.615 11.462-18 18.077-30.615 16.308zM180.923 334.154c-6.462-0.692-12.538-3.538-17.231-8-27.769-25.231-45.538-61.846-45.538-102.154s17.154-77 44.923-102.154c12.077-11.077 30.769-10.231 41.846 1.846s10.231 30.769-1.846 41.846c-15.846 14.385-25.846 35-25.846 58.462 0 23.308 9.923 44 25.846 58.462 9.692 8.462 12.769 22.154 7.769 33.923-5.077 11.769-17.154 19-29.923 17.769zM326.769 334.154c-12-0.692-22.385-8.538-26.308-19.846-3.846-11.385-0.538-23.923 8.462-31.846 15.846-14.385 25.846-35 25.846-58.462 0-23.308-9.923-44-25.846-58.462-9-6.692-13.462-17.923-11.462-28.923 2-11.077 10.077-20 20.846-23.154s22.385 0.154 30 8.385c27.769 25.231 45.538 61.846 45.538 102.154s-17.154 77-44.923 102.154c-5.923 5.615-14 8.538-22.154 8zM256 259.692c-19.769 0-35.692-15.923-35.692-35.692 0-19.692 15.923-35.692 35.692-35.692s35.692 16 35.692 35.692c0 19.769-15.923 35.692-35.692 35.692z" />
<glyph unicode="&#xe907;" glyph-name="erp-rs-designer" data-tags="erp-rs-designer" horiz-adv-x="551" d="M510.457 473.519c22.165 0 40.020-17.855 40.020-40.021v-420.293c0-22.165-17.855-40.021-40.020-40.021h-246.279c-10.774 0-20.626 4.31-28.322 11.698s3.665 22.135 13.238 12.93c4.002-4.002 9.543-6.465 15.392-6.465h245.971c12.006 0 21.549 9.543 21.549 21.55v420.601c0 12.006-9.543 21.55-21.55 21.55h-227.808c-6.311 0-6.311 18.471 0 18.471h227.808zM439.736 328.020c18.779 0 34.171-15.084 34.171-33.863s-15.084-33.863-33.863-33.863c-3.694 0-7.080 0.615-10.467 1.539v0l-50.179-75.115c4.925-5.849 8.004-13.546 8.004-21.857 0-18.779-15.084-33.863-33.863-33.863s-33.863 15.084-33.863 33.863c0 3.079 0.615 6.157 1.231 8.928v0l-40.020 24.628c-5.849-5.541-13.853-8.928-22.781-8.928-3.694 0-7.388 0.615-10.774 1.847v0l-58.491-84.966c4.618-5.849 7.696-13.238 7.696-21.55 0-18.779-15.084-33.863-33.864-33.863s-33.863 15.084-33.863 33.863c0 18.779 15.084 33.863 33.863 33.863 3.694 0 7.388-0.615 10.774-1.847v0l58.491 84.966c-4.618 5.849-7.696 13.238-7.696 21.55 0 18.779 15.084 33.863 33.864 33.863s33.863-15.084 33.863-33.863c0-3.079-0.615-6.157-1.231-8.928v0l40.020-24.628c5.849 5.541 13.853 8.928 22.781 8.928 3.694 0 7.080-0.615 10.467-1.539v0l49.872 75.115c-4.925 5.849-8.004 13.546-8.004 21.857 0 18.779 15.084 33.863 33.863 33.863zM162.673 100.212c-8.619 0-15.393-6.772-15.393-15.392s6.773-15.392 15.393-15.392c8.619 0 15.393 6.772 15.393 15.392s-6.773 15.392-15.393 15.392zM353.539 180.253c-8.62 0-15.392-6.772-15.392-15.392s6.772-15.392 15.392-15.392c8.62 0 15.392 6.772 15.392 15.392s-6.772 15.392-15.392 15.392zM218.369 478.505c1 1.434 3.43 1.863 6.076 1.072 7.506 0.065 12.441-6.611 11.087-13.139v0l-7.75-76.834c-1-1.434-1.785-4.088-2.785-5.522v0l-129.782-187.656-2.215-1.649c-8.215-10.253-18.291-17.061-30.441-19.204s-26.162-0.839-37.819 8.425c-22.883 16.090-28.476 47.806-12.476 70.752v0l3.215 3.082 127.998 183.568c2 2.868 3 4.303 5.43 4.731v0zM31.501 238.018c-6.785-11.259-4.204-25.897 7.238-33.942 5.721-4.022 13.441-5.176 19.517-4.106s10.505 4.368 14.721 8.885v0zM258.106 238.744c-8.619 0-15.393-6.773-15.393-15.393s6.773-15.392 15.393-15.392c8.62 0 15.392 6.772 15.392 15.392s-6.772 15.393-15.392 15.393zM154.284 415.635l-108.998-156.32 42.906-30.168 108.783 157.54-42.69 28.949zM439.736 309.549c-8.62 0-15.392-6.772-15.392-15.392s6.772-15.392 15.392-15.392c8.62 0 15.392 6.772 15.392 15.392s-6.772 15.392-15.392 15.392zM208.521 449.096l-33.517-15.972 30.034-21.118 3.483 37.091z" />
<glyph unicode="&#xe908;" glyph-name="erp-crm-connector" data-tags="erp-crm-connector" horiz-adv-x="819" d="M409.553 356c-43.618 0-79.2-35.582-79.2-79.2 0-25.369 12.268-47.743 30.938-62.288-11.245-4.43-21.557-10.519-31.045-17.738 0 0.305 0.107 0.519 0.107 0.825 0 28.982-23.818 52.8-52.8 52.8s-52.8-23.818-52.8-52.8c0-14.132 5.775-27.019 14.85-36.507-24.445-13.505-41.25-39.294-41.25-69.094h26.4c0 29.288 23.512 52.8 52.8 52.8 3.82 0 7.425-0.413 10.932-1.13-6.807-15.882-10.932-33.207-10.932-51.669h26.4c0 49.294 33.619 90.132 79.2 101.887v-22.688l26.4-26.4 26.4 26.4v22.688c45.582-11.757 79.2-52.594 79.2-101.887h26.4c0 18.257-3.819 35.682-10.618 51.563 3.506 0.718 7.013 1.238 10.618 1.238 29.288 0 52.8-23.512 52.8-52.8h26.4c0 29.807-16.806 55.581-41.25 69.094 9.075 9.488 14.85 22.382 14.85 36.507 0 28.982-23.818 52.8-52.8 52.8s-52.8-23.818-52.8-52.8c0-0.207 0-0.413 0-0.619-9.38 7.12-19.693 13.093-30.938 17.531 18.67 14.544 30.938 36.919 30.938 62.287 0 43.618-35.582 79.2-79.2 79.2zM409.553 144.8l-26.4-26.4v-26.4h52.8v26.4l-26.4 26.4zM409.553 329.6c29.288 0 52.8-23.513 52.8-52.8s-23.512-52.8-52.8-52.8c-29.288 0-52.8 23.512-52.8 52.8s23.512 52.8 52.8 52.8zM277.553 224c14.743 0 26.4-11.657 26.4-26.4s-11.657-26.4-26.4-26.4c-14.743 0-26.4 11.657-26.4 26.4s11.657 26.4 26.4 26.4zM541.553 224c14.743 0 26.4-11.657 26.4-26.4s-11.657-26.4-26.4-26.4c-14.743 0-26.4 11.657-26.4 26.4s11.657 26.4 26.4 26.4z" />
<glyph unicode="&#xe909;" glyph-name="erp-incoming-goods" data-tags="erp-incoming-goods" horiz-adv-x="590" d="M83.001 480c-18.343 0-33.2-14.857-33.2-33.2v-16.6l-49.8-66.401c0-18.343 14.857-33.2 33.2-33.2s33.2 14.857 33.2 33.2l33.2 66.401h49.801l-16.6-66.401c0-18.343 14.857-33.2 33.2-33.2s33.2 14.857 33.2 33.2v66.401h66.4v-66.401c0-18.343 14.857-33.2 33.2-33.2 2.293 0 4.517 0.239 6.679 0.681 15.132 3.095 26.521 16.469 26.521 32.519l-16.6 66.401h49.8l33.2-66.401c0-18.343 14.857-33.2 33.2-33.2s33.2 14.857 33.2 33.2l-49.8 66.401v16.6c0 18.343-14.857 33.2-33.2 33.2h-298.802zM199.201 306.639c-9.81-5.711-21.049-9.24-33.2-9.24-12.118 0-23.309 3.514-33.103 9.208-9.811-5.743-21.13-9.208-33.297-9.208-12.069 0-23.245 3.499-33.005 9.143-9.828-5.76-21.21-9.143-33.395-9.143v-182.601c0-18.343 14.857-33.2 33.2-33.2h199.201v166.001h99.601v-105.028l66.4 62.57v92.258c-12.185 0-23.567 3.383-33.394 9.143-9.761-5.644-20.938-9.143-33.005-9.143-12.168 0-23.487 3.464-33.298 9.208-9.794-5.694-20.985-9.208-33.103-9.208-12.151 0-23.389 3.53-33.2 9.24-9.81-5.711-21.049-9.24-33.2-9.24s-23.389 3.53-33.2 9.24zM469.658 192.496l24.1-24.1-72.3-71.252h165.711v-33.531h-165.712l72.3-72.3-24.1-24.1-112.118 113.165 112.118 112.118zM199.201 247.599v-99.601h-99.6v99.601h99.6z" />
<glyph unicode="&#xe90a;" glyph-name="erp-inventory-flow" data-tags="erp-inventory-flow" horiz-adv-x="522" d="M512 122.566v-154.566h-502.339v89.344l45.667-43.6h411.005v63.077l45.667 45.745zM80.867 219.17l30.847-31.322-28.206-28.64h100.039v-44.301h-100.039l28.206-28.64-30.847-31.322-80.867 82.113 80.867 82.113zM440.794 277.132l80.866-82.113-80.866-82.113-30.847 31.322 28.206 28.64h-100.039v44.301h100.039l-28.206 28.64 30.847 31.322zM432.082 480l79.918-107.387v-94.088l-45.667 46.010v17.434h-411.005v-86.449l-45.667-46.010v163.103l79.918 107.387h342.505zM315.36 286.791c8.091 0.099 15.616-3.562 19.695-9.579s4.079-13.461 0-19.478c-4.079-6.018-11.604-9.678-19.695-9.579v0h-89.738c-8.090-0.099-15.616 3.562-19.695 9.579s-4.078 13.46 0 19.478c4.078 6.018 11.604 9.678 19.695 9.579v0zM419.623 422.038h-298.264l-34.415-38.642h367.095l-34.415 38.642z" />
<glyph unicode="&#xe90b;" glyph-name="erp-kpi-dashboard" data-tags="erp-kpi-dashboard" horiz-adv-x="683" d="M682.667 480v-512h-195.040l-0.007 238.299 19.921 14.64 0.108-0.142 0.111-0.14 23.446-28.471 1.292-2.233c2.885-4.195 7.508-6.716 12.644-6.723 4.883-0.012 9.552 2.257 12.923 6.036l1.572 2.012 84.59 123.846 1.476 2.543c2.561 5.262 2.759 11.466 0.274 16.638-2.771 5.77-8.364 9.16-14.481 8.952l-2.314-0.249-141.562-25.12 0.007 162.109h195.040zM361.551 269.303l-3.841-115.267-0.079-1.125-0.065-1.070c-0.099-1.92-0.111-3.743 0.001-5.58 0.673-11.082 5.895-19.749 16.928-19.928l2.88 0.135 1.103 0.22 0.74 0.24c4.2 1.522 12.679 7.107 35.719 23.519l4.493 3.205 19.412 14.004 0.017-199.655h-195.040v154.137l117.734 147.166zM195.048 309.333v-75.581l-140.351-170.066-1.599-2.317c-4.431-7.272-5.471-17.252 0.054-24.48 5.066-6.627 12.205-6.622 18.657-3.371l1.088 0.584 1.028 0.622 1.601 1.112 0.811 0.644 1.313 1.308 10.010 11.297 107.388 128.858v-209.944h-195.048v341.334h195.048zM438.857 382.476l-0.017-173.251-35.149-25.345-7.324-5.207 1.757 143.903-0.089 2.505c-0.56 5.773-3.56 10.942-8.46 13.658l-2.214 1.008-0.791 0.25-0.9 0.243-1.631 0.232-2.72 0.065-2.608-0.334c-3.394-0.7-6.442-2.4-8.949-4.838l-1.776-1.963-124.168-155.165v204.239h195.040zM593.75 300.385l-45.983-67.329-13.917 22.593c-0.448 1.454-1.123 2.853-2.040 4.161-7.8 11.125-19.624 6.129-29.219 0.458l-2.019-1.22-12.952-9.789v32.353l106.131 18.773z" />
<glyph unicode="&#xe90c;" glyph-name="erp-store" data-tags="erp-store" horiz-adv-x="588" d="M104.974 480c-23.199 0-41.989-18.791-41.989-41.99v-20.994l-62.984-83.979c0-23.199 18.791-41.99 41.989-41.99s41.989 18.791 41.989 41.99l41.99 83.979h62.984l-20.994-83.979c0-23.199 18.791-41.99 41.989-41.99s41.989 18.791 41.989 41.99v83.979h83.979v-83.979c0-23.199 18.791-41.99 41.99-41.99 2.9 0 5.713 0.302 8.447 0.861 19.138 3.913 33.543 20.829 33.543 41.129l-20.995 83.979h62.984l41.99-83.979c0-23.199 18.79-41.99 41.99-41.99s41.99 18.791 41.99 41.99l-62.984 83.979v20.994c0 23.199-18.79 41.99-41.99 41.99h-377.905zM251.936 260.745c-12.408-7.222-26.621-11.687-41.989-11.687-15.326 0-29.48 4.445-41.867 11.645-12.408-7.264-26.724-11.645-42.112-11.645-15.263 0-29.398 4.425-41.743 11.563-12.429-7.285-26.826-11.563-42.236-11.563v-230.942c0-23.199 18.791-41.99 41.989-41.99h251.936v209.947h125.969v-209.947h41.99c23.199 0 41.989 18.791 41.989 41.99v230.942c-15.41 0-29.807 4.279-42.236 11.563-12.345-7.138-26.48-11.563-41.743-11.563-15.389 0-29.704 4.381-42.113 11.645-12.387-7.201-26.541-11.645-41.866-11.645-15.368 0-29.582 4.464-41.99 11.687-12.408-7.222-26.622-11.687-41.99-11.687s-29.582 4.464-41.989 11.687zM125.969 186.074h125.969v-125.969h-125.969v125.969z" />
<glyph unicode="&#xe90d;" glyph-name="erp-totalcheckauto" data-tags="erp-totalcheckauto" horiz-adv-x="496" d="M239.018 480c-56.008-1.031-91.785-23.649-107.146-58.818-14.657-33.483-11.38-75.77-0.75-119.509-5.713-6.697-10.255-15.688-8.617-29.221 1.779-14.751 5.853-25.241 11.613-32.594 3.184-4.028 7.352-4.402 11.239-6.369 2.107-12.551 5.619-25.1 10.864-35.59 2.997-6.041 6.416-11.613 9.74-16.11 1.499-2.014 3.653-3.185 5.245-4.87 0.094-14.798 0.141-27.115-1.124-42.709-3.887-9.413-12.972-16.999-27.723-24.351-15.219-7.587-35.029-14.611-55.072-23.228s-40.648-19.106-56.944-35.591c-16.297-16.484-27.817-39.103-29.596-68.933l-0.75-12.738h481.033l-0.75 12.738c-1.779 29.831-13.346 52.449-29.596 68.933s-36.62 26.974-56.57 35.591c-19.95 8.616-39.524 15.641-54.697 23.228-14.564 7.305-23.743 14.704-27.723 23.976-1.311 15.781-1.217 28.144-1.124 43.083 1.592 1.733 3.747 2.856 5.245 4.87 3.278 4.543 6.416 10.115 9.366 16.11 5.104 10.49 8.804 23.087 10.865 35.59 3.747 1.967 7.774 2.435 10.865 6.369 5.76 7.352 9.834 17.842 11.613 32.594 1.592 13.113-2.81 21.775-8.242 28.472 5.853 19.013 13.346 49.733 10.865 81.296-1.358 17.233-5.76 34.419-16.11 48.702-9.459 13.113-24.82 22.666-44.207 26.599-12.597 16.344-35.262 22.478-61.44 22.478h-0.375zM239.392 456.024c0.141 0 0.234 0 0.375 0 24.117-0.094 39.758-7.165 44.207-14.986l2.997-4.87 5.62-0.75c16.671-2.295 26.224-9.038 32.968-18.357s10.49-22.337 11.613-36.714c2.248-28.754-6.041-62.236-11.239-77.924l-2.997-9.366 8.242-4.87c-0.515 0.328 4.589-3.137 3.372-13.112-1.405-11.754-4.214-17.842-6.369-20.605s-3.278-2.623-3.372-2.623l-10.115-0.75-1.124-9.74c-1.124-10.35-5.291-23.040-10.115-32.968-2.435-4.964-4.917-9.319-7.118-12.363s-4.495-4.73-3.372-4.121l-6.369-3.372v-7.118c0-17.373-0.702-31.61 1.124-51.7v-1.498l0.75-1.498c6.837-18.404 22.666-29.877 40.086-38.587s37.416-15.126 56.195-23.228c18.779-8.101 35.965-17.795 48.702-30.72 10.115-10.255 16.484-23.836 19.856-40.836h-425.586c3.372 16.952 9.694 30.579 19.855 40.836 12.785 12.925 30.205 22.618 49.077 30.72s38.728 14.517 56.196 23.228c17.468 8.711 33.624 20.183 40.46 38.587l0.75 2.997c1.827 20.090 1.124 34.326 1.124 51.7v7.118l-6.369 3.372c1.077-0.562-1.499 1.077-3.746 4.121s-5.011 7.399-7.493 12.363c-4.964 9.928-9.038 22.713-10.115 32.968l-1.124 9.74-10.115 0.75c-0.094 0-1.218-0.141-3.371 2.623s-4.964 8.851-6.369 20.605c-1.171 9.974 3.887 13.44 3.371 13.112l7.868 4.87-2.248 8.616c-11.286 43.458-13.252 82.935-1.499 109.769 11.708 26.74 35.59 43.552 85.417 44.582z" />
<glyph unicode="&#xe90e;" glyph-name="erp-transf-btw-storages" data-tags="erp-transf-btw-storages" horiz-adv-x="498" d="M365.714 245.943l131.657-58.499v-206.19h-263.315v206.175l131.657 58.514zM438.857 69.025h-58.514v-58.514h58.514v58.514zM351.086 69.025h-58.514v-58.514h58.514v58.514zM91.745 273.996l19.721-19.721-59.163-58.305h135.6v-27.438h-135.6l59.162-59.163-19.721-19.721-91.745 92.602 91.745 91.745zM394.971 156.796h-58.514v-58.514h58.514v58.514zM331.22 480l92.602-91.745-92.602-92.602-18.863 19.721 58.305 59.163h-344.716v27.438h344.716l-58.305 58.305 18.863 19.721z" />
<glyph unicode="&#xe90f;" glyph-name="erp-transf-btw-stores" data-tags="erp-transf-btw-stores" d="M396.19 108.991c5.704-3.32 12.237-5.372 19.301-5.372 7.045 0 13.551 2.043 19.245 5.353 5.704-3.339 12.284-5.353 19.358-5.353 7.016 0 13.514 2.034 19.188 5.315 5.714-3.349 12.331-5.315 19.414-5.315v0-106.159c0-10.664-8.637-19.301-19.301-19.301v0h-19.301v96.508h-57.905v-96.508h-115.81c-10.664 0-19.301 8.637-19.301 19.301v0 106.159c7.084 0 13.702 1.966 19.414 5.315 5.675-3.281 12.173-5.315 19.188-5.315 7.074 0 13.654 2.014 19.358 5.353 5.694-3.31 12.2-5.353 19.245-5.353 7.065 0 13.598 2.052 19.301 5.372 5.704-3.32 12.237-5.372 19.301-5.372s13.598 2.052 19.301 5.372zM357.587 74.666h-57.905v-57.905h57.905v57.905zM89.196 279.719l19.173-19.173-57.519-56.685h131.833v-26.675h-131.833l57.519-57.519-19.173-19.173-89.196 90.029 89.196 89.196zM463.746 209.778c10.664 0 19.301-8.637 19.301-19.301v0-9.651l28.952-38.603c0-10.664-8.637-19.301-19.301-19.301s-19.301 8.637-19.301 19.301v0l-19.301 38.603h-28.952l9.651-38.603c0-9.331-6.622-17.106-15.418-18.906-1.257-0.257-2.55-0.396-3.883-0.396-10.664 0-19.301 8.637-19.301 19.301v0 38.603h-38.603v-38.603c0-10.664-8.637-19.301-19.301-19.301s-19.301 8.637-19.301 19.301v0l9.651 38.603h-28.952l-19.301-38.603c0-10.664-8.637-19.301-19.301-19.301s-19.302 8.637-19.302 19.301v0l28.953 38.603v9.651c0 10.664 8.637 19.301 19.301 19.301v0zM322.019 480l90.029-89.196-90.029-90.029-18.339 19.173 56.685 57.519h-335.141v26.675h335.141l-56.685 56.685 18.339 19.173z" />
<glyph unicode="&#xe910;" glyph-name="erp-type-specificator" data-tags="erp-type-specificator" horiz-adv-x="442" d="M165.517 480c-91.407 0-165.517-74.755-165.517-166.957s74.111-166.957 165.517-166.957c91.407 0 165.517 74.755 165.517 166.957s-74.111 166.957-165.517 166.957zM68.966 213.69c16.097 48.695 64.373 29.69 72.414 56.070v17.586c-3.614 1.962-13.972 15.429-15.062 25.948-2.855 0.25-7.324 3.103-8.648 14.386-0.704 6.052 2.111 9.461 3.807 10.532 0 0-4.248 9.767-4.248 19.465 0.014 28.828 14.166 52.758 48.29 52.758 18.428 0 24.138-13.175 24.138-13.175 16.469 0 24.138-18.212 24.138-39.568 0-10.644-4.249-19.465-4.249-19.465 1.71-1.071 4.524-4.48 3.821-10.532-1.324-11.284-5.793-14.136-8.649-14.386-1.089-10.518-11.434-23.986-15.062-25.948v-17.586c8.042-26.393 56.317-7.388 72.414-56.084 0 0-36.111-39.777-96.552-39.777-60.786 0-96.552 39.778-96.552 39.778zM308.966 222.389l-114.942-48.824c-10.575-4.503-17.471-14.608-17.471-25.702v-179.863h264.827v179.863c0 11.094-6.897 21.199-17.471 25.702h-0.058l-114.885 48.824zM308.966 191.634l102.988-43.771v-151.743h-29.425v56.238h-29.425v56.238h-88.276v-56.238h-29.425v-56.238h-29.425v151.744l102.988 43.771zM294.253 80.476h29.425v-28.119h-29.425v28.119zM264.827 24.238h29.425v-28.119h-29.425v28.119zM323.678 24.238h29.425v-28.119h-29.425v28.119z" />
<glyph unicode="&#xe911;" glyph-name="erp-account-disabled" data-tags="erp-account-disabled" horiz-adv-x="448" d="M226.623 480h3.148c2.099 0 5.246-1.049 7.345-3.147l122.754-122.754c2.099-2.099 3.147-5.246 3.147-7.344v-3.148c0-2.099 0-3.148 0-4.197v-138.492c-7.344 1.049-14.688 2.099-22.033 2.099v126.951h-88.131c-22.033 0-39.869 17.836-39.869 39.869v88.131h-175.213c-9.443 0-15.738-6.295-15.738-15.737v-409.18c0-12.59 9.442-22.033 22.033-22.033h186.754c4.197-8.394 9.442-14.688 15.738-22.033h-202.492c-24.131 0-44.066 19.935-44.066 44.065v409.18c0 20.983 16.787 37.771 37.77 37.771h183.606c1.049 0 1.049 0 2.099 0s2.099 0 3.148 0zM235.017 369.836c0-10.492 7.345-17.836 17.836-17.836h78.689l-96.524 96.524v-78.688zM266.492 244.983v-20.983h-169.967v20.983h169.967zM266.492 203.017v-22.033h-169.967v22.033h169.967zM96.525 139.017v20.983h150.033c-6.295-6.295-11.541-13.639-15.738-20.983h-134.295zM192 116.983v-20.983h-95.475v20.983h95.475zM403.935 75.017c0-6.295-4.197-11.541-10.492-11.541h-103.869c-7.344 0-11.541 5.246-11.541 11.541s4.197 10.492 11.541 10.492h104.918c5.246 0 9.442-4.197 9.442-10.492zM448 75.017c0-58.754-48.262-107.017-107.017-107.017s-105.967 48.262-105.967 107.017c0 58.754 47.213 105.967 105.967 105.967s107.017-47.213 107.017-105.967zM427.017 75.017c0 46.164-38.82 84.983-86.033 84.983-46.164 0-84.983-38.82-84.983-84.983 0-47.213 38.82-86.033 84.983-86.033 47.213 0 86.033 38.82 86.033 86.033z" />
<glyph unicode="&#xe912;" glyph-name="erp-accounting-c" data-tags="erp-accounting-c" d="M198.667 480v-512h170.667v512h-170.667zM0 422.666v-454.666h170.667v454.666h-170.667zM228 422.666h113.334v-28h-113.334v28zM28 366.666h114.666v-29.334h-114.666v29.334zM398.666 366.666v-398.666h113.334v398.666h-113.334zM256 337.333h57.334v-226.666h-57.334v226.666zM426.666 309.333h57.334v-28h-57.334v28zM57.334 281.333h56v-170.666h-56v170.666zM28 53.334h114.666v-28h-114.666v28zM228 53.334h113.334v-28h-113.334v28zM426.666 53.334h57.334v-28h-57.334v28z" />
<glyph unicode="&#xe913;" glyph-name="erp-accounting" data-tags="erp-accounting" d="M198.667 480v-512h170.667v512h-170.667zM0 422.666v-454.666h170.667v454.666h-170.667zM228 422.666h113.334v-28h-113.334v28zM28 366.666h114.666v-29.334h-114.666v29.334zM398.666 366.666v-398.666h113.334v398.666h-113.334zM256 337.333h57.334v-226.666h-57.334v226.666zM426.666 309.333h57.334v-28h-57.334v28zM57.334 281.333h56v-170.666h-56v170.666zM28 53.334h114.666v-28h-114.666v28zM228 53.334h113.334v-28h-113.334v28zM426.666 53.334h57.334v-28h-57.334v28z" />
<glyph unicode="&#xe914;" glyph-name="erp-accountingdoc" data-tags="erp-accountingdoc" horiz-adv-x="448" d="M226.623 480h3.148c2.099 0 5.246-1.049 7.345-3.147l122.754-122.754c2.099-2.099 3.147-5.246 3.147-7.344v-3.148c0-2.099 0-3.148 0-4.197v-138.492c-7.344 1.049-14.688 2.099-22.033 2.099v126.951h-88.131c-22.033 0-39.869 17.836-39.869 39.869v88.131h-175.213c-9.443 0-15.738-6.295-15.738-15.737v-409.18c0-12.59 9.442-22.033 22.033-22.033h186.754c4.197-8.394 9.442-14.688 15.738-22.033h-202.492c-24.131 0-44.066 19.935-44.066 44.065v409.18c0 20.983 16.787 37.771 37.77 37.771h183.606c1.049 0 1.049 0 2.099 0s2.099 0 3.148 0zM235.017 369.836c0-10.492 7.345-17.836 17.836-17.836h78.689l-96.524 96.524v-78.688zM266.492 244.983v-20.983h-169.967v20.983h169.967zM266.492 203.017v-22.033h-169.967v22.033h169.967zM96.525 139.017v20.983h150.033c-6.295-6.295-11.541-13.639-15.738-20.983h-134.295zM192 116.983v-20.983h-95.475v20.983h95.475zM340.983 180.983c-58.754 0-105.967-47.213-105.967-105.967s47.213-107.017 105.967-107.017c58.754 0 107.017 48.262 107.017 107.017s-48.262 105.967-107.017 105.967zM340.983-11.017c-46.164 0-84.983 38.82-84.983 86.033 0 46.164 38.82 84.983 84.983 84.983 47.213 0 86.033-38.82 86.033-84.983 0-47.213-38.82-86.033-86.033-86.033zM330.492 99.147c0-22.033 48.262-13.639 48.262-51.41 0-26.23-25.18-29.377-30.426-29.377v-14.688h-11.541v14.688c-4.197 0-31.476 3.147-31.476 34.623h20.983c0-3.147 0-17.836 15.738-17.836 14.688 0 14.688 10.492 14.688 12.59 0 24.131-48.262 13.639-48.262 51.41 0 22.033 19.935 29.377 29.377 29.377v16.787h11.541v-16.787c8.394-1.049 28.328-6.295 28.328-33.574h-20.983c0 6.295-1.049 17.836-14.688 17.836-11.541-1.049-11.541-11.541-11.541-13.639z" />
<glyph unicode="&#xe915;" glyph-name="erp-accountingmore-c" data-tags="erp-accountingmore-c" d="M316.572 480v-177.143c-17.143-4.571-33.143-11.428-48-19.428v74.286h-49.143v-114.286c-30.857-35.428-49.143-80-49.143-129.143 0-26.286 5.714-50.286 14.857-73.143h-14.857v438.857h146.286zM146.286 430.857v-389.714h-146.286v389.714h146.286zM195.429 406.857h97.143v24h-97.143v-24zM24 357.714h98.285v25.143h-98.285v-25.143zM438.857 382.857v-88c-22.857 9.143-46.857 14.857-73.143 14.857h49.143v24h-49.143v-24c-8 0-16-1.143-24-2.286v75.428h97.143zM49.143 163.428h48v146.286h-48v-146.286zM24 90.286h98.285v24h-98.285v-24zM365.714 260.572c-80 0-146.286-66.286-146.286-146.286s66.286-146.286 146.286-146.286c80 0 146.286 66.286 146.286 146.286s-66.286 146.286-146.286 146.286zM438.857 90.286h-49.143v-49.143h-48v49.143h-49.143v48h49.143v49.143h48v-49.143h49.143v-48z" />
<glyph unicode="&#xe916;" glyph-name="erp-accountingmore" data-tags="erp-accountingmore" d="M316.572 480v-177.143c-17.143-4.571-33.143-11.428-48-19.428v74.286h-49.143v-114.286c-30.857-35.428-49.143-80-49.143-129.143 0-26.286 5.714-50.286 14.857-73.143h-14.857v438.857h146.286zM146.286 430.857v-389.714h-146.286v389.714h146.286zM195.429 406.857h97.143v24h-97.143v-24zM24 357.714h98.285v25.143h-98.285v-25.143zM438.857 382.857v-88c-22.857 9.143-46.857 14.857-73.143 14.857h49.143v24h-49.143v-24c-8 0-16-1.143-24-2.286v75.428h97.143zM49.143 163.428h48v146.286h-48v-146.286zM24 90.286h98.285v24h-98.285v-24zM365.714 260.572c-80 0-146.286-66.286-146.286-146.286s66.286-146.286 146.286-146.286c80 0 146.286 66.286 146.286 146.286s-66.286 146.286-146.286 146.286zM438.857 90.286h-49.143v-49.143h-48v49.143h-49.143v48h49.143v49.143h48v-49.143h49.143v-48z" />
<glyph unicode="&#xe917;" glyph-name="erp-accountingreclassification" data-tags="erp-accountingreclassification" horiz-adv-x="487" d="M51.925 480c-28.981 0-51.925-22.943-51.925-50.717v-386.415c0-28.981 22.944-51.925 51.925-51.925h241.51c-45.887 0-86.944 20.529-117.132 51.925h-124.377v386.415h282.566v-108.679c19.321-4.83 36.226-12.076 51.925-22.944v131.623c0 27.774-22.944 50.717-51.925 50.717h-282.566zM102.641 377.358v-51.925h181.132v51.925h-181.132zM293.434 300.076c-76.076 0-138.868-62.793-138.868-138.868 0-77.283 62.792-140.076 138.868-140.076 30.188 0 56.755 8.453 79.698 24.151l77.283-77.283 36.226 36.226-77.283 77.283c15.698 22.943 24.151 49.51 24.151 79.698 0 76.076-62.793 138.868-140.076 138.868zM102.641 274.717v-51.924h38.641c7.245 19.321 19.321 36.226 33.811 51.924h-72.453zM293.434 244.529c47.094 0 84.529-37.434 84.529-83.321 0-47.094-37.434-84.529-84.529-84.529-45.887 0-83.321 37.434-83.321 84.529 0 45.887 37.434 83.321 83.321 83.321zM249.963 197.434c-8.453-10.868-14.49-22.944-14.49-36.226 0-16.906 7.245-31.396 16.905-41.056h82.113v77.283h-84.529zM102.641 170.868v-50.717h31.396c-3.623 13.283-4.83 26.566-4.83 41.056 0 3.623 0 6.038 0 9.661h-26.566z" />
<glyph unicode="&#xe918;" glyph-name="erp-airplane-boarding" data-tags="erp-airplane-boarding" horiz-adv-x="795" d="M738.341 480v-28.098c0-17.171 12.488-29.658 28.097-29.658h28.097v-396.488h-28.097c-15.61 0-28.097-12.488-28.097-28.098v-29.658h-682.146v29.659c0 15.61-12.488 28.098-28.098 28.098h-28.098v396.488h28.098c15.61 0 28.098 12.488 28.098 29.659v28.097h682.146zM538.537 422.244h-437.073c-7.805-21.854-23.415-35.903-45.269-45.269v-305.951c21.853-9.366 37.463-23.414 45.269-45.269h437.073v56.195h57.756v-56.195h96.78c7.805 21.853 23.414 35.903 45.269 45.269v305.951c-21.854 9.366-37.463 23.414-45.269 45.269h-96.78v-56.195h-57.756v56.195zM280.976 370.731l51.512-115.512h95.219c20.293 0 37.464-17.171 37.464-39.024 0-20.293-17.171-37.464-37.464-37.464h-95.219l-51.512-115.512h-60.878l12.488 115.512h-23.415l-26.536-39.024h-53.073l14.049 76.488-14.049 78.049h53.073l26.536-39.025h23.415l-12.488 115.512h60.878zM265.366 344.195h-17.171l14.049-115.512h-67.122l-24.976 39.024h-9.366l9.366-51.512-9.366-51.512h9.366l24.976 39.024h67.122l-14.049-115.512h17.17l49.951 115.512h112.39c6.244 0 12.488 6.244 12.488 12.488 0 7.805-6.244 12.488-12.488 12.488h-112.39l-49.951 115.512zM596.293 195.902v-56.195h-57.756v56.195h57.756zM596.293 309.853v-57.756h-57.756v57.756h57.756z" />
<glyph unicode="&#xe919;" glyph-name="erp-assets-c" data-tags="erp-assets-c" horiz-adv-x="358" d="M307.681 480h-257.202c-27.643 0-50.479-22.836-50.479-50.479v-411.043c0-27.643 22.835-50.479 50.479-50.479h153.84v127.399h103.362v-127.399c27.643 0 50.479 22.836 50.479 50.479v411.043c0 27.643-22.836 50.479-50.479 50.479zM153.84 44.92h-103.362v50.479h103.362v-50.479zM153.84 147.080h-103.362v51.681h103.362v-51.681zM153.84 249.239h-103.362v51.681h103.362v-51.681zM153.84 352.601h-103.362v50.479h103.362v-50.479zM307.681 147.080h-103.362v51.681h103.362v-51.681zM307.681 249.239h-103.362v51.681h103.362v-51.681zM307.681 352.601h-103.362v50.479h103.362v-50.479z" />
<glyph unicode="&#xe91a;" glyph-name="erp-assets" data-tags="erp-assets" horiz-adv-x="358" d="M307.681 480h-257.202c-27.643 0-50.479-22.836-50.479-50.479v-411.043c0-27.643 22.835-50.479 50.479-50.479h153.84v127.399h103.362v-127.399c27.643 0 50.479 22.836 50.479 50.479v411.043c0 27.643-22.836 50.479-50.479 50.479zM153.84 44.92h-103.362v50.479h103.362v-50.479zM153.84 147.080h-103.362v51.681h103.362v-51.681zM153.84 249.239h-103.362v51.681h103.362v-51.681zM153.84 352.601h-103.362v50.479h103.362v-50.479zM307.681 147.080h-103.362v51.681h103.362v-51.681zM307.681 249.239h-103.362v51.681h103.362v-51.681zM307.681 352.601h-103.362v50.479h103.362v-50.479z" />
<glyph unicode="&#xe91b;" glyph-name="erp-assetsmore-c" data-tags="erp-assetsmore-c" horiz-adv-x="442" d="M325.322 434.149v-141.919c-7.642 1.091-15.284 2.183-22.925 2.183s-15.284-1.091-22.925-2.183v25.108h-93.885v-46.942h27.292c-30.567-16.375-56.768-42.576-73.143-73.143v27.292h-93.885v-46.943h84.059c-6.55-14.192-9.825-30.567-12.008-46.942h-72.051v-45.851h72.051c3.275-25.108 10.917-49.126 22.925-69.868h-94.977c-25.108 0-45.85 20.742-45.85 45.851v373.356c0 25.108 20.742 45.851 45.85 45.851h233.62c25.108 0 45.851-20.742 45.851-45.851zM139.736 317.339h-93.885v-46.942h93.885v46.942zM139.736 410.132h-93.885v-45.851h93.885v45.851zM279.471 410.132h-93.885v-45.851h93.885v45.851zM302.397 247.471c-76.418 0-139.736-63.317-139.736-139.736s63.317-139.736 139.736-139.736c76.418 0 139.736 63.317 139.736 139.736s-63.317 139.736-139.736 139.736zM372.264 84.81h-46.942v-46.942h-45.851v46.942h-46.942v45.851h46.942v46.942h45.851v-46.942h46.942v-45.851z" />
<glyph unicode="&#xe91c;" glyph-name="erp-assetsmore" data-tags="erp-assetsmore" horiz-adv-x="442" d="M325.322 434.149v-141.919c-7.642 1.091-15.284 2.183-22.925 2.183s-15.284-1.091-22.925-2.183v25.108h-93.885v-46.942h27.292c-30.567-16.375-56.768-42.576-73.143-73.143v27.292h-93.885v-46.943h84.059c-6.55-14.192-9.825-30.567-12.008-46.942h-72.051v-45.851h72.051c3.275-25.108 10.917-49.126 22.925-69.868h-94.977c-25.108 0-45.85 20.742-45.85 45.851v373.356c0 25.108 20.742 45.851 45.85 45.851h233.62c25.108 0 45.851-20.742 45.851-45.851zM139.736 317.339h-93.885v-46.942h93.885v46.942zM139.736 410.132h-93.885v-45.851h93.885v45.851zM279.471 410.132h-93.885v-45.851h93.885v45.851zM302.397 247.471c-76.418 0-139.736-63.317-139.736-139.736s63.317-139.736 139.736-139.736c76.418 0 139.736 63.317 139.736 139.736s-63.317 139.736-139.736 139.736zM372.264 84.81h-46.942v-46.942h-45.851v46.942h-46.942v45.851h46.942v46.942h45.851v-46.942h46.942v-45.851z" />
<glyph unicode="&#xe91d;" glyph-name="erp-assiglabour" data-tags="erp-assiglabour" horiz-adv-x="621" d="M377.995 399.091c0-45.511-35.397-80.909-80.909-80.909s-80.909 35.398-80.909 80.909c0 46.776 35.398 80.909 80.909 80.909s80.909-34.134 80.909-80.909zM189.63 358.637c0-36.661-30.34-67.002-68.266-67.002-36.662 0-67.002 30.341-67.002 67.002 0 37.926 30.341 68.267 67.002 68.267 37.926 0 68.266-30.341 68.266-68.267zM539.813 358.637c0-8.849-2.529-18.963-5.057-26.548-24.020 8.849-49.303 13.906-75.852 13.906-17.699 0-34.134-2.529-50.568-6.321-2.529 6.321-3.793 12.642-3.793 18.963 0 37.926 30.341 68.267 68.267 68.267 36.661 0 67.002-30.341 67.002-68.267zM0 103.269v61.945c0 0 27.813 72.060 121.363 72.060h13.906v-61.945c0 0 36.661 85.966 155.496 89.758-30.341-37.926-48.040-84.701-48.040-135.269 0-8.849 1.264-17.699 2.529-26.548h-245.255zM458.904 291.635c-88.494 0-161.817-73.323-161.817-161.817s73.323-161.817 161.817-161.817c88.494 0 161.817 73.323 161.817 161.817s-73.323 161.817-161.817 161.817zM539.813 103.269h-54.361v-54.361h-53.096v54.361h-54.361v53.096h54.361v54.361h53.096v-54.361h54.361v-53.096z" />
<glyph unicode="&#xe91e;" glyph-name="erp-attachment" data-tags="erp-attachment" horiz-adv-x="599" d="M443.266 478.598c-39.276 0-79.956-15.43-110.817-44.888h-1.402l-179.55-179.55c-35.069-36.471-35.069-96.789 0-131.857 36.471-36.471 96.789-36.471 131.858 0l157.107 155.704-43.485 42.082-155.704-155.704c-11.222-12.625-35.069-12.625-47.693 0-11.222 11.222-11.222 35.068 0 47.693l179.55 178.148c40.68 37.874 100.998 40.679 137.469 1.402s36.471-102.4 0-137.469l-179.55-179.55c-58.915-63.123-159.912-60.318-224.439 0-61.721 60.318-63.123 159.912 0 224.439l112.219 109.413-42.082 43.485-112.219-110.816c-85.567-86.97-85.567-225.841 1.403-308.603 85.567-82.761 224.439-86.97 307.2 0 1.402 0 1.402 0 1.402 0l178.148 179.55c60.318 58.915 60.318 158.51 1.403 221.633-29.457 30.861-70.137 46.291-110.817 44.888z" />
<glyph unicode="&#xe91f;" glyph-name="erp-attachments" data-tags="erp-attachments" horiz-adv-x="599" d="M443.266 478.598c-39.276 0-79.956-15.43-110.817-44.888h-1.402l-179.55-179.55c-35.069-36.471-35.069-96.789 0-131.857 36.471-36.471 96.789-36.471 131.858 0l157.107 155.704-43.485 42.082-155.704-155.704c-11.222-12.625-35.069-12.625-47.693 0-11.222 11.222-11.222 35.068 0 47.693l179.55 178.148c40.68 37.874 100.998 40.679 137.469 1.402s36.471-102.4 0-137.469l-179.55-179.55c-58.915-63.123-159.912-60.318-224.439 0-61.721 60.318-63.123 159.912 0 224.439l112.219 109.413-42.082 43.485-112.219-110.816c-85.567-86.97-85.567-225.841 1.403-308.603 85.567-82.761 224.439-86.97 307.2 0 1.402 0 1.402 0 1.402 0l178.148 179.55c60.318 58.915 60.318 158.51 1.403 221.633-29.457 30.861-70.137 46.291-110.817 44.888z" />
<glyph unicode="&#xe920;" glyph-name="erp-bankinternet" data-tags="erp-bankinternet" horiz-adv-x="464" d="M148.904 79.105c-9.163-36.653-18.327-74.452-27.49-111.105-10.308 0-19.472 0-29.781 0-5.727 24.053-11.454 48.108-17.181 72.161-6.873-24.053-12.599-48.108-18.326-72.161-9.163 0-19.472 0-28.636 0-9.163 36.653-18.326 74.452-27.49 111.105 9.164 0 18.326 0 27.49 0 4.581-25.199 10.309-50.398 14.89-76.743 6.873 26.344 12.599 51.543 19.472 76.743 8.018 0 17.181 0 26.345 0 5.727-25.199 11.454-50.398 17.181-76.743 5.727 26.344 11.454 51.543 16.036 76.743 9.163 0 18.327 0 27.49 0zM305.825 79.105c-9.163-36.653-17.181-74.452-26.344-111.105-10.308 0-19.472 0-29.781 0-5.727 24.053-11.454 48.108-18.327 72.161-5.727-24.053-11.454-48.108-17.181-72.161-10.309 0-19.472 0-28.636 0-9.163 36.653-18.327 74.452-27.49 111.105 9.163 0 18.327 0 27.49 0 4.582-25.199 10.309-50.398 14.891-76.743 6.873 26.344 12.6 51.543 18.327 76.743 9.163 0 18.327 0 26.345 0 5.727-25.199 12.599-50.398 18.327-76.743 5.727 26.344 10.308 51.543 16.036 76.743 9.163 0 18.327 0 26.344 0zM463.892 79.105c-9.163-36.653-18.327-74.452-27.49-111.105-9.163 0-19.472 0-28.635 0-5.727 24.053-12.599 48.108-18.327 72.161-5.727-24.053-11.454-48.108-17.181-72.161-10.308 0-19.472 0-29.781 0-9.163 36.653-18.327 74.452-27.49 111.105 9.163 0 18.327 0 27.49 0 5.727-25.199 10.308-50.398 16.036-76.743 5.727 26.344 12.599 51.543 18.327 76.743 9.163 0 17.181 0 26.344 0 5.727-25.199 11.454-50.398 18.327-76.743 4.582 26.344 10.308 51.543 16.036 76.743 9.163 0 17.181 0 26.344 0zM231.374 480l-231.374-146.613v-48.108h463.892v48.108l-232.519 146.613zM24.053 260.081v-24.054c0-13.745 11.454-24.053 24.053-24.053v-122.56h73.306v122.56c13.745 0 25.199 10.308 25.199 24.053v24.053h-122.559zM170.667 260.081v-24.054c0-13.745 11.454-24.053 24.054-24.053v-122.56h73.307v122.56c13.745 0 25.199 10.308 25.199 24.053v24.053h-122.56zM317.279 260.081v-24.054c0-13.745 11.454-24.053 24.053-24.053v-122.56h73.307v122.56c13.745 0 25.199 10.308 25.199 24.053v24.053h-122.56z" />
<glyph unicode="&#xe921;" glyph-name="erp-barcode" data-tags="erp-barcode" d="M50.479 480c-27.643 0-50.479-22.836-50.479-50.479v-411.043c0-27.643 22.835-50.479 50.479-50.479v512zM76.92 480v-512h50.479v512h-50.479zM153.84 480v-512h50.479v512h-50.479zM230.761 480v-512h127.399v512h-127.399zM384.601 480v-512h50.479v512h-50.479zM461.521 480v-512c27.643 0 50.479 22.836 50.479 50.479v411.043c0 27.643-22.836 50.479-50.479 50.479z" />
<glyph unicode="&#xe922;" glyph-name="erp-barcodechecked" data-tags="erp-barcodechecked" d="M45.85 14.942c-25.108 0-45.85 20.742-45.85 45.851v373.356c0 25.108 20.742 45.851 45.85 45.851v-465.058zM115.719 480v-465.058h-45.85v465.058h45.85zM185.587 480v-465.058h-45.851v465.058h45.851zM325.322 480v-192.137c-49.126-13.1-91.702-45.851-115.719-90.61v282.747h115.719zM209.603 14.942v3.275c0-1.091 1.091-2.183 1.091-3.275h-1.091zM395.19 480v-187.769c-7.642 1.091-15.284 2.183-22.925 2.183s-15.284-1.091-22.925-2.183v187.769h45.851zM465.058 434.149v-164.844c-14.192 7.642-29.476 14.192-45.851 18.559v192.136c25.108 0 45.851-20.742 45.851-45.85zM372.264 247.471c-76.418 0-139.736-63.317-139.736-139.736s63.317-139.736 139.736-139.736c76.418 0 139.736 63.317 139.736 139.736s-63.317 139.736-139.736 139.736zM360.256 28.043l-74.235 75.326 32.75 32.75 41.484-42.575 77.51 77.51 32.75-32.75-110.26-110.26z" />
<glyph unicode="&#xe923;" glyph-name="erp-billofladingerror" data-tags="erp-billofladingerror" horiz-adv-x="466" d="M326.413 480c12.009 0 25.108-4.366 33.842-13.1s13.1-20.742 13.1-32.75v-146.286c-15.284 4.367-30.567 6.55-46.942 6.55v139.736h-279.471v-373.356h99.344c4.367-16.375 10.917-31.659 18.559-45.851h-117.902c-12.008 0-25.108 4.366-33.842 13.1s-13.1 20.742-13.1 32.75v373.356c0 12.009 4.367 24.017 13.1 32.75s21.834 13.1 33.842 13.1h279.471zM279.471 364.281v-46.942h-185.587v46.942h185.587zM186.678 247.471v-16.375c-7.642-9.825-15.284-19.651-21.834-30.567h-70.96v46.942h92.793zM93.885 130.661v46.942h60.043c-6.55-14.192-9.825-30.567-12.008-46.942h-48.034zM326.413 247.471c-76.418 0-139.736-63.317-139.736-139.736s63.317-139.736 139.736-139.736c76.418 0 139.736 63.317 139.736 139.736s-63.317 139.736-139.736 139.736zM349.339 14.942h-45.851v45.851h45.851v-45.851zM349.339 84.81h-45.851v115.719h45.851v-115.719z" />
<glyph unicode="&#xe924;" glyph-name="erp-billofladingprocessed" data-tags="erp-billofladingprocessed" horiz-adv-x="470" d="M54.114 480c-2.081 0-3.122-1.041-5.203-2.082l-16.651-8.325-16.651 8.325c-3.122 2.082-7.285 2.082-10.406 0s-5.204-5.204-5.204-9.366v-468.293c0-6.244 5.204-11.447 11.447-11.447h256c-5.204 7.284-10.406 14.569-15.61 21.853h-229.983v441.236l6.244-3.122c2.081-2.082 6.244-2.082 9.366 0l16.651 8.325 16.651-8.325c2.082-2.082 6.244-2.082 9.366 0l16.651 8.325 16.65-8.325c2.082-2.082 6.244-2.082 9.366 0l16.651 8.325 15.61-8.325c3.122-2.082 7.285-2.082 10.406 0l16.65 8.325 15.61-8.325c3.122-2.082 7.285-2.082 10.406 0l15.61 8.325 16.65-8.325c3.122-2.082 7.285-2.082 10.406 0l15.61 8.325 16.651-8.325c3.122-2.082 7.284-2.082 10.406 0l15.61 8.325 16.651-8.325c3.122-2.082 7.284-2.082 9.366 0l16.651 8.325 16.651-8.325c3.122-2.082 7.284-2.082 9.366 0l6.244 3.122v-251.838c7.284-1.041 14.569-3.122 21.853-5.204v273.691c0 4.163-2.082 7.284-5.204 9.366s-7.284 2.082-10.406 0l-16.651-8.325-16.651 8.325c-3.122 2.082-6.244 2.082-9.366 0l-16.651-8.325-16.651 8.325c-3.122 2.082-6.244 2.082-9.366 0l-16.651-8.325-16.651 8.325c-3.122 2.082-6.244 2.082-9.366 0l-16.65-8.325-16.65 8.325c-3.122 2.082-6.244 2.082-9.366 0l-16.65-8.325-16.65 8.325c-3.122 2.082-6.244 2.082-9.366 0l-16.65-8.325-16.65 8.325c-3.122 2.082-6.244 2.082-9.366 0l-16.65-8.325-16.65 8.325c-3.122 2.082-6.244 2.082-9.366 0l-16.651-8.325-16.651 8.325c-1.041 1.041-3.122 2.082-4.163 2.082zM74.927 383.219c-4.162 0-7.284-2.082-9.366-5.204s-2.081-7.284 0-10.406c2.082-3.122 5.204-5.204 9.366-5.204h160.26c3.122 0 7.285 2.082 9.366 5.204s2.082 7.284 0 10.406c-2.082 3.122-6.244 5.204-9.366 5.204h-160.26zM298.666 383.219c-4.163 0-7.284-2.082-9.366-5.204s-2.082-7.284 0-10.406c2.082-3.122 5.204-5.204 9.366-5.204h32.26c4.163 0 7.284 2.082 9.366 5.204s2.082 7.284 0 10.406c-2.082 3.122-5.204 5.204-9.366 5.204h-32.26zM74.927 319.74c-4.162 0-7.284-2.082-9.366-5.203s-2.081-7.285 0-10.407c2.082-4.162 5.204-6.244 9.366-6.244h117.594c3.122 0 7.285 2.082 9.366 6.244 2.082 3.122 2.082 7.285 0 10.407s-6.244 5.203-9.366 5.203h-117.594zM298.666 319.74c-4.163 0-7.284-2.082-9.366-5.203s-2.082-7.285 0-10.407c2.082-4.162 5.204-6.244 9.366-6.244h32.26c4.163 0 7.284 2.082 9.366 6.244 2.082 3.122 2.082 7.285 0 10.407s-5.204 5.203-9.366 5.203h-32.26zM74.927 255.22c-4.162 1.040-7.284-1.041-9.366-5.203-2.081-3.122-2.081-7.285 0-10.406s5.204-5.203 9.366-5.203h160.26c3.122 0 7.285 2.082 9.366 5.203s2.082 7.285 0 10.406c-2.082 4.162-6.244 6.244-9.366 5.203h-160.26zM298.666 255.22c-4.163 1.040-7.284-1.041-9.366-5.203-2.082-3.122-2.082-7.285 0-10.406s5.204-5.203 9.366-5.203h32.26c4.163 0 7.284 2.082 9.366 5.203s2.082 7.285 0 10.406c-2.082 4.162-5.204 6.244-9.366 5.203h-32.26zM74.927 191.74c-4.162 0-7.284-2.082-9.366-5.204s-2.081-7.284 0-10.406c2.082-4.163 5.204-5.204 9.366-5.204h117.594c3.122 0 7.285 1.041 9.366 5.204 2.082 3.122 2.082 7.284 0 10.406s-6.244 5.204-9.366 5.204h-117.594zM363.187 181.334c-59.317 0-107.187-47.87-107.187-107.187 0-58.276 47.87-106.147 107.187-106.147 58.276 0 106.147 47.87 106.147 106.147 0 59.317-47.87 107.187-106.147 107.187zM363.187 159.479c46.829 0 85.334-38.504 85.334-85.334s-38.504-85.334-85.334-85.334c-46.829 0-85.334 38.504-85.334 85.334s38.504 85.334 85.334 85.334zM74.927 128.26c-6.244 0-10.406-5.204-10.406-11.447 0-5.204 4.162-10.406 10.406-10.406s10.406 5.204 10.406 10.406c0 6.244-4.162 11.447-10.406 11.447zM107.187 128.26c-6.244 0-10.406-5.204-10.406-11.447 0-5.204 4.162-10.406 10.406-10.406 5.204 0 10.406 5.204 10.406 10.406 0 6.244-5.204 11.447-10.406 11.447zM139.447 128.26c-6.244 0-11.447-5.204-11.447-11.447 0-5.204 5.203-10.406 11.447-10.406 5.203 0 10.406 5.204 10.406 10.406 0 6.244-5.203 11.447-10.406 11.447zM170.667 128.26c-5.203 0-10.406-5.204-10.406-11.447 0-5.204 5.203-10.406 10.406-10.406 6.244 0 11.447 5.204 11.447 10.406 0 6.244-5.203 11.447-11.447 11.447zM202.927 128.26c-6.244 0-10.406-5.204-10.406-11.447 0-5.204 4.162-10.406 10.406-10.406s10.406 5.204 10.406 10.406c0 6.244-4.162 11.447-10.406 11.447zM235.187 128.26c-6.244 0-11.447-5.204-11.447-11.447 0-5.204 5.203-10.406 11.447-10.406 5.203 0 10.406 5.204 10.406 10.406 0 6.244-5.203 11.447-10.406 11.447zM408.976 123.057l-58.276-66.601-34.341 27.057-13.529-17.691 49.951-38.504 71.805 82.212-15.61 13.529z" />
<glyph unicode="&#xe925;" glyph-name="erp-fiscalbill" data-tags="erp-fiscalbill" horiz-adv-x="411" d="M51.681 480c-13.221 0-27.643-4.808-37.258-14.423s-14.422-22.835-14.422-36.056v-411.043c0-13.221 4.808-26.442 14.422-36.056s24.038-14.423 37.258-14.423h307.681c13.221 0 27.643 4.808 37.258 14.423s14.423 22.836 14.423 36.057v411.043c0 13.221-4.808 26.442-14.423 36.057s-24.038 14.422-37.258 14.422h-307.681zM51.681 429.521h307.681v-411.043h-307.681v411.043zM103.362 352.601v-51.681h204.319v51.681h-204.319zM103.362 224v-51.681h102.16v51.681h-102.159zM257.202 224v-51.681h50.479v51.681h-50.479zM103.362 147.080v-51.681h102.16v51.681h-102.159zM257.202 147.080v-51.681h50.479v51.681h-50.479z" />
<glyph unicode="&#xe926;" glyph-name="erp-billofmaterials" data-tags="erp-billofmaterials" d="M204.319 480v-76.92h45.672l-7.212-3.606-127.399-76.92-13.221-7.212v-66.103h-25.24v-76.92h28.845l-7.212-4.808-63.7-51.681-9.615-8.413v-62.498h-25.239v-76.92h102.159v76.92h-25.24v38.46l38.46 31.249 38.46-31.249v-38.46h-26.442v-76.92h103.362v76.92h-26.441v62.498l-9.615 8.413-63.7 51.681-7.212 4.808h55.286v76.92h-25.239v38.46l102.159 60.094 102.159-60.094v-38.46h-25.24v-76.92h55.286l-7.212-4.808-63.7-51.681-9.615-8.413v-62.498h-26.442v-76.92h103.362v76.92h-26.442v38.46l38.46 31.249 38.46-31.249v-38.46h-25.24v-76.92h102.159v76.92h-25.24v62.498l-9.615 8.413-63.7 51.681-7.212 4.808h28.845v76.92h-25.24v66.103l-13.221 7.212-127.399 76.92-7.212 3.606h45.671v76.92z" />
<glyph unicode="&#xe927;" glyph-name="erp-binblocked" data-tags="erp-binblocked" horiz-adv-x="442" d="M325.322 317.339c0-16.375-2.183-33.842-6.55-50.218-48.034-13.1-84.060-55.676-86.243-108.077-14.192-12.009-22.925-30.567-22.925-51.309v-40.392c-26.201-31.659-46.942-52.401-46.942-52.401s-162.661 162.661-162.661 302.397c0 90.61 72.051 162.661 162.661 162.661s162.661-72.051 162.661-162.661zM220.52 317.339c0 32.75-25.108 57.859-57.859 57.859s-57.859-25.108-57.859-57.859c0-32.75 25.108-57.859 57.859-57.859s57.859 25.108 57.859 57.859zM419.207 130.661v24.017c0 39.3-30.567 69.868-69.868 69.868-40.392 0-69.868-30.567-69.868-69.868v-24.017c-14.192 0-24.017-8.733-24.017-22.925v-116.81c0-13.1 9.825-22.925 24.017-22.925h139.736c13.1 0 22.925 9.825 22.925 22.925v116.81c0 14.192-9.825 22.925-22.925 22.925zM314.405 154.678c0 18.558 16.375 34.934 34.934 34.934s34.934-16.375 34.934-34.934v-24.017h-69.868v24.017z" />
<glyph unicode="&#xe928;" glyph-name="erp-binunblocked" data-tags="erp-binunblocked" horiz-adv-x="442" d="M325.322 317.339c0-16.375-2.183-33.842-6.55-50.218-48.034-13.1-84.060-55.676-86.243-108.077-14.192-12.009-22.925-30.567-22.925-51.309v-40.392c-26.201-31.659-46.942-52.401-46.942-52.401s-162.661 162.661-162.661 302.397c0 90.61 72.051 162.661 162.661 162.661s162.661-72.051 162.661-162.661zM220.52 317.339c0 32.75-25.108 57.859-57.859 57.859s-57.859-25.108-57.859-57.859c0-32.75 25.108-57.859 57.859-57.859s57.859 25.108 57.859 57.859zM419.207 130.661h-104.802v24.017c0 18.558 16.375 34.934 34.934 34.934s34.934-16.375 34.934-34.934h34.934c0 39.3-30.567 69.868-69.868 69.868-40.392 0-69.868-30.567-69.868-69.868v-24.017c-14.192 0-24.017-8.733-24.017-22.925v-116.81c0-13.1 9.825-22.925 24.017-22.925h139.736c13.1 0 22.925 9.825 22.925 22.925v116.81c0 14.192-9.825 22.925-22.925 22.925z" />
<glyph unicode="&#xe929;" glyph-name="erp-bucket" data-tags="erp-bucket" horiz-adv-x="488" d="M135.494 480l-35.972-35.972 70.745-70.745-147.485-142.689c-29.977-29.977-29.977-79.138 0-107.915l1.199-2.398 129.499-128.3c29.977-29.976 76.74-31.175 104.319-3.597l130.698 131.897c29.976 28.777 29.976 76.74 0 106.716l-51.56 51.56-111.513 112.712-89.929 88.731zM206.239 337.312l146.285-146.286c5.995-5.995 8.394-11.99 8.394-17.986h-309.358c-1.199 7.195 1.199 14.389 7.194 20.384l147.485 143.887zM437.658 122.679c0 0-51.56-74.342-51.56-103.12 0-27.579 22.782-50.361 51.56-50.361 27.579 0 50.361 22.782 50.361 50.361 0 28.777-50.361 103.12-50.361 103.12z" />
<glyph unicode="&#xe92a;" glyph-name="erp-calculator" data-tags="erp-calculator" horiz-adv-x="411" d="M51.681 480c-27.643 0-51.681-22.836-51.681-50.479v-411.043c0-27.643 24.038-50.479 51.681-50.479h307.681c28.845 0 51.681 22.836 51.681 50.479v411.043c0 27.643-22.836 50.479-51.681 50.479h-307.681zM51.681 429.521h307.681v-103.362h-307.681v103.361zM282.442 403.080v-50.479h51.681v50.479h-51.681zM76.92 275.681h51.681v-51.681h-51.681v51.681zM180.281 275.681h50.479v-51.681h-50.479v51.681zM282.442 275.681h51.681v-51.681h-51.681v51.681zM76.92 172.319h51.681v-50.479h-51.681v50.479zM180.281 172.319h50.479v-50.479h-50.479v50.479zM282.442 172.319h51.681v-50.479h-51.681v50.479zM76.92 70.159h51.681v-51.681h-51.681v51.681zM180.281 70.159h50.479v-51.681h-50.479v51.681zM282.442 70.159h51.681v-51.681h-51.681v51.681z" />
<glyph unicode="&#xe92b;" glyph-name="erp-calendarflash-c" data-tags="erp-calendarflash-c" horiz-adv-x="462" d="M76.92 480v-50.479h-25.239c-28.845 0-51.681-24.038-51.681-51.681v-359.361c0-27.643 22.835-50.479 51.681-50.479h358.159c28.845 0 51.681 22.836 51.681 50.479v359.361c0 27.643-22.836 51.681-51.681 51.681h-25.24v50.479h-51.681v-50.479h-204.319v50.479h-51.681zM51.681 300.92h358.159v-282.442h-358.159v282.442zM230.761 198.76v0zM317.296 302.122l-56.488-156.244h70.911l-49.277-128.601h21.634l112.976 156.244h-63.7l56.488 128.601h-92.544z" />
<glyph unicode="&#xe92c;" glyph-name="erp-calendarflash" data-tags="erp-calendarflash" horiz-adv-x="462" d="M76.92 480v-50.479h-25.239c-28.845 0-51.681-24.038-51.681-51.681v-359.361c0-27.643 22.835-50.479 51.681-50.479h358.159c28.845 0 51.681 22.836 51.681 50.479v359.361c0 27.643-22.836 51.681-51.681 51.681h-25.24v50.479h-51.681v-50.479h-204.319v50.479h-51.681zM51.681 300.92h358.159v-282.442h-358.159v282.442zM230.761 198.76v0zM317.296 302.122l-56.488-156.244h70.911l-49.277-128.601h21.634l112.976 156.244h-63.7l56.488 128.601h-92.544z" />
<glyph unicode="&#xe92d;" glyph-name="erp-cash-c" data-tags="erp-cash-c" horiz-adv-x="511" d="M122.305 478.801c-11.99-2.398-20.384-13.19-20.384-25.18v-101.921h-4.796c-38.37 0-71.944-28.777-76.74-67.147l-17.986-137.893h50.361l15.588 130.698c2.398 11.99 15.588 22.782 28.778 22.782h4.796c0-14.389 11.99-25.18 25.18-25.18h256.599c13.19 0 25.18 10.791 25.18 25.18h4.796c13.19 0 25.18-10.791 25.18-22.782l16.787-130.698h50.361l-17.986 137.893c-2.398 38.37-35.972 67.147-74.342 67.147h-4.796v101.921c0 8.394-3.597 15.588-10.791 20.384-5.995 4.796-15.588 5.995-22.782 3.597l-65.948-22.782-43.166 21.583c-7.195 3.597-14.389 3.597-21.583 0l-43.167-21.583-65.948 22.782c-3.597 1.199-7.195 1.199-10.791 1.199 0 0-1.199 0-2.398 0zM255.4 424.843l39.569-20.384c5.995-2.398 13.19-2.398 19.185 0l43.166 14.389v-93.527h-203.84v93.527l43.167-14.389c5.995-2.398 13.19-2.398 19.185 0l39.569 20.384zM127.1 223.401v-51.56h51.559v51.56h-51.559zM230.22 223.401v-51.56h50.361v51.56h-50.361zM332.14 223.401v-51.56h51.56v51.56h-51.56zM0 121.48v-103.12c0-27.579 22.782-50.361 50.361-50.361h410.079c27.579 0 50.361 22.782 50.361 50.361v103.12h-510.801zM255.4 83.11c20.384 0 38.37-17.986 38.37-38.37s-17.986-38.37-38.37-38.37c-20.384 0-38.37 17.986-38.37 38.37s17.986 38.37 38.37 38.37z" />
<glyph unicode="&#xe92e;" glyph-name="erp-cash" data-tags="erp-cash" horiz-adv-x="511" d="M122.305 478.801c-11.99-2.398-20.384-13.19-20.384-25.18v-101.921h-4.796c-38.37 0-71.944-28.777-76.74-67.147l-17.986-137.893h50.361l15.588 130.698c2.398 11.99 15.588 22.782 28.778 22.782h4.796c0-14.389 11.99-25.18 25.18-25.18h256.599c13.19 0 25.18 10.791 25.18 25.18h4.796c13.19 0 25.18-10.791 25.18-22.782l16.787-130.698h50.361l-17.986 137.893c-2.398 38.37-35.972 67.147-74.342 67.147h-4.796v101.921c0 8.394-3.597 15.588-10.791 20.384-5.995 4.796-15.588 5.995-22.782 3.597l-65.948-22.782-43.166 21.583c-7.195 3.597-14.389 3.597-21.583 0l-43.167-21.583-65.948 22.782c-3.597 1.199-7.195 1.199-10.791 1.199 0 0-1.199 0-2.398 0zM255.4 424.843l39.569-20.384c5.995-2.398 13.19-2.398 19.185 0l43.166 14.389v-93.527h-203.84v93.527l43.167-14.389c5.995-2.398 13.19-2.398 19.185 0l39.569 20.384zM127.1 223.401v-51.56h51.559v51.56h-51.559zM230.22 223.401v-51.56h50.361v51.56h-50.361zM332.14 223.401v-51.56h51.56v51.56h-51.56zM0 121.48v-103.12c0-27.579 22.782-50.361 50.361-50.361h410.079c27.579 0 50.361 22.782 50.361 50.361v103.12h-510.801zM255.4 83.11c20.384 0 38.37-17.986 38.37-38.37s-17.986-38.37-38.37-38.37c-20.384 0-38.37 17.986-38.37 38.37s17.986 38.37 38.37 38.37z" />
<glyph unicode="&#xe92f;" glyph-name="erp-cashin" data-tags="erp-cashin" horiz-adv-x="511" d="M111.115 478.911c-10.894-2.178-18.519-11.983-18.519-22.877v-92.596h-4.358c-34.859 0-65.362-26.144-69.719-61.005l-16.34-125.276h45.753l14.161 118.74c2.178 10.894 14.162 20.698 26.144 20.698h4.358c0-13.072 10.894-22.876 22.877-22.876h233.124c11.983 0 22.877 9.804 22.877 22.876h4.358c11.983 0 22.877-9.804 22.877-20.698l11.983-101.31 49.022-17.43-16.341 125.276c-2.178 34.859-32.681 61.005-67.541 61.005h-4.358v92.596c0 7.625-3.268 14.161-9.805 18.519-5.447 4.357-14.161 5.447-20.698 3.268l-59.915-20.698-39.217 19.608c-6.536 3.268-13.072 3.268-19.608 0l-39.217-19.608-59.915 20.698c-3.268 1.089-6.536 1.089-9.805 1.089h-2.178zM232.034 429.889l35.949-18.519c5.447-2.178 11.983-2.178 17.43 0l39.217 13.072v-84.97h-185.191v84.97l39.217-13.072c5.447-2.178 11.983-2.178 17.43 0l35.949 18.519zM115.472 246.876v-46.843h46.843v46.843h-46.843zM209.157 246.876v-46.843h45.753v46.843h-45.753zM301.753 246.876v-46.843h46.843v46.843h-46.842zM0 154.281v-93.685c0-25.055 20.698-45.753 45.753-45.753h251.643l-6.536 27.234-2.178 28.324c-2.178 25.055 3.268 33.77 9.805 57.736l7.625 26.144h-306.111zM232.034 119.421c18.519 0 34.86-16.341 34.86-34.859s-16.34-34.86-34.859-34.86c-18.519 0-34.859 16.341-34.859 34.86s16.34 34.86 34.859 34.86zM406.332-32c57.736 0 104.579 46.842 104.579 104.579s-46.843 104.579-104.579 104.579c-58.825 0-104.579-46.842-104.579-104.579s45.753-104.579 104.579-104.579zM359.49 119.421h81.702v-23.966h-34.86l55.558-55.558-22.877-22.877-56.647 55.558v-34.86h-22.877v81.702z" />
<glyph unicode="&#xe930;" glyph-name="erp-cashout" data-tags="erp-cashout" horiz-adv-x="511" d="M111.115 478.911c-10.894-2.178-18.519-11.983-18.519-22.877v-92.596h-4.358c-34.859 0-65.362-26.144-69.719-61.005l-16.34-125.276h45.753l14.161 118.74c2.178 10.894 14.162 20.698 26.144 20.698h4.358c0-13.072 10.894-22.876 22.877-22.876h233.124c11.983 0 22.877 9.804 22.877 22.876h4.358c11.983 0 22.877-9.804 22.877-20.698l11.983-101.31 49.022-17.43-16.341 125.276c-2.178 34.859-32.681 61.005-67.541 61.005h-4.358v92.596c0 7.625-3.268 14.161-9.805 18.519-5.447 4.357-14.161 5.447-20.698 3.268l-59.915-20.698-39.217 19.608c-6.536 3.268-13.072 3.268-19.608 0l-39.217-19.608-59.915 20.698c-3.268 1.089-6.536 1.089-9.805 1.089h-2.178zM232.034 429.889l35.949-18.519c5.447-2.178 11.983-2.178 17.43 0l39.217 13.072v-84.97h-185.191v84.97l39.217-13.072c5.447-2.178 11.983-2.178 17.43 0l35.949 18.519zM115.472 246.876v-46.843h46.843v46.843h-46.843zM209.157 246.876v-46.843h45.753v46.843h-45.753zM301.753 246.876v-46.843h46.843v46.843h-46.842zM0 154.281v-93.685c0-25.055 20.698-45.753 45.753-45.753h251.643l-6.536 27.234-2.178 28.324c-2.178 25.055 3.268 33.77 9.805 57.736l7.625 26.144h-306.111zM232.034 119.421c18.519 0 34.86-16.341 34.86-34.859s-16.34-34.86-34.859-34.86c-18.519 0-34.859 16.341-34.859 34.86s16.34 34.86 34.859 34.86zM406.332 177.158c-58.825 0-104.579-46.842-104.579-104.579s45.753-104.579 104.579-104.579c57.736 0 104.579 46.842 104.579 104.579s-46.843 104.579-104.579 104.579zM452.085 25.736h-80.613v23.966h34.86l-56.647 55.558 23.966 22.877 55.558-55.558v34.859h22.877v-81.702z" />
<glyph unicode="&#xe931;" glyph-name="erp-change-company" data-tags="erp-change-company" horiz-adv-x="516" d="M493.42 214.709c6.194 0 12.387-3.097 16.516-7.226 4.129-5.161 6.193-11.355 5.162-16.516-16.516-125.935-124.903-222.967-256-222.967-77.419 0-145.548 34.065-193.032 86.709l-44.387-44.387-21.677 128 129.032-20.645-33.032-33.033c40.258-45.419 97.032-74.322 163.097-74.322 109.419 0 199.226 81.548 212.645 185.807 2.065 10.322 11.355 18.581 21.678 18.581zM242.581 368.516c20.645 0 26.838-13.42 26.838-13.42 18.581 0 26.839-19.613 26.839-41.29 0-11.355-4.129-20.645-4.129-20.645 2.065-1.032 5.161-4.129 4.129-11.355-2.065-11.355-6.194-14.452-10.322-14.452-1.033-11.355-12.387-25.807-16.516-27.871v-9.291c-9.291 0-17.548-8.258-17.548-17.548v-92.903h-62.968c-22.709 0-41.291 10.322-56.774 29.935 0 64 74.323 44.387 83.613 72.258v17.548c-4.129 2.065-15.484 16.516-16.516 27.871-3.097 0-8.258 3.097-10.322 14.452 0 6.194 3.097 10.322 4.129 11.355v1.033c-1.032 2.064-4.129 10.322-4.129 19.613 0 29.936 15.484 54.71 53.678 54.71zM368.516 212.645c5.161 0 9.291-4.129 9.291-9.291v-74.322c0-5.161-4.129-9.291-9.291-9.291h-89.806c-5.161 0-9.291 4.129-9.291 9.291v74.322c0 5.161 4.129 9.291 9.291 9.291h89.807zM336.516 194.065h-26.839c-2.065 0-4.129-2.065-4.129-5.161 0-2.065 2.065-4.129 4.129-4.129h26.839c3.097 0 5.161 2.065 5.161 4.129 0 3.097-2.065 5.161-5.161 5.161zM259.097 480c71.226 0 135.226-29.935 181.678-75.355l33.033 32 21.678-128-129.033 21.678 44.387 44.387c-39.226 38.194-92.903 61.935-151.742 61.935-110.452 0-200.258-80.516-213.678-184.774-1.032-8.258-6.194-14.452-13.419-17.548s-15.484-2.065-21.677 2.065c-6.194 5.161-9.29 13.419-8.258 20.645 16.516 125.935 124.903 222.967 257.033 222.967z" />
<glyph unicode="&#xe932;" glyph-name="erp-change-inventory-reason" data-tags="erp-change-inventory-reason" horiz-adv-x="510" d="M256 480c-130 0-237-97-254-223-1-7 2-15 8-20s15-6 22-3c7 3 12 10 13 18 13 104 102 185 211 185 59 0 112-24 151-62l-44-44 128-22-22 128-32-32c-47 46-110 75-181 75zM489 215c-11 0-20-8-22-19-13-104-102-185-211-185-64 0-122 28-161 74l33 32-128 22 21-128 44 43c47-52 115-86 191-86 130 0 237 97 254 223 0 6-1 12-5 17-4 4-10 7-16 7zM181 342l-37-50v-76l21 21v40h193v-8l21-21v44l-37 50h-161zM192 320h139l16-21h-171l16 21zM240 256c-4 0-7-2-9-5-2-4-2-8 0-11s5-5 9-5h43c4 0 7 2 9 5s2 7 0 11c-2 3-5 5-9 5h-43zM344 253l-15-15 13-14h-49v-21h49l-13-14 15-15 39 39-39 40zM179 221l-40-40 40-39 15 15-14 14h49v21h-49l14 14-15 15zM379 179l-21-22v-29h-193l-21 20v-42h235v73z" />
<glyph unicode="&#xe933;" glyph-name="erp-change-storage" data-tags="erp-change-storage" horiz-adv-x="510" d="M256 480c-130 0-237-97-254-223-1-7 2-15 8-20s15-6 22-3c7 3 12 10 13 18 13 104 102 185 211 185 59 0 112-24 151-62l-44-44 128-22-22 128-32-32c-47 46-110 75-181 75zM489 215c-11 0-20-8-22-19-13-104-102-185-211-185-64 0-122 28-161 74l33 32-128 22 21-128 44 43c47-52 115-86 191-86 130 0 237 97 254 223 0 6-1 12-5 17-4 4-10 7-16 7zM362 284l-105 47-105-47v-164h210v164zM315 144h-46v46h46v-46zM280 213h-46v47h46v-47zM245 190v-46h-46v46h46z" />
<glyph unicode="&#xe934;" glyph-name="erp-change-store" data-tags="erp-change-store" horiz-adv-x="511" d="M256 480c-129.506 0-236.925-97.38-253.992-222.87-1.004-8.031 2.008-15.059 8.031-20.078s15.059-6.024 22.087-3.012c7.027 3.012 12.047 10.039 13.051 18.071 13.051 104.408 102.4 184.721 210.823 184.721 59.231 0 112.439-23.090 150.588-62.243l-44.173-44.173 128.502-21.083-21.082 127.498-33.13-32.125c-46.18 46.18-110.431 75.294-180.706 75.294zM488.91 214.964c-11.043 0-20.079-8.031-21.082-19.075-14.055-104.408-103.404-185.726-211.827-185.726-64.251 0-121.475 29.113-160.627 74.29l33.13 33.13-128.502 21.082 21.082-128.502 44.172 44.173c46.18-53.208 114.447-86.337 190.745-86.337 129.506 0 236.925 97.38 253.992 222.87 1.004 6.024-1.004 12.047-5.019 17.067-4.015 4.015-10.039 7.027-16.063 7.027zM169.662 327.404c-10.039 0-18.071-8.031-18.071-18.071v-9.035l-27.106-35.138c0-10.039 8.031-18.071 18.071-18.071s18.071 8.031 18.071 18.071l18.071 35.137h27.106l-9.036-35.137c0-10.039 8.031-18.071 18.071-18.071s18.071 8.031 18.071 18.071v35.137h36.141v-35.137c0-10.039 8.031-18.071 18.070-18.071 1.004 0 2.008 0 3.012 0 8.031 2.008 15.059 9.036 15.059 18.071l-9.036 35.137h27.106l17.067-35.137c0-10.039 9.036-18.071 18.070-18.071 10.039 0 18.070 8.031 18.070 18.071l-27.106 35.137v9.036c0 10.039-8.031 18.071-17.067 18.071h-162.636zM232.91 234.039c-6.024-3.012-12.047-5.019-18.071-5.019-7.028 0-13.051 2.008-18.071 5.019-5.019-4.016-11.043-5.019-18.071-5.019s-13.051 2.008-18.071 5.019c-5.019-4.016-11.043-5.019-18.071-5.019v-99.388c0-10.039 8.031-18.070 18.071-18.070h108.424v90.353h54.212v-90.353h17.067c10.039 0 18.070 8.031 18.070 18.070v99.388c-6.024 0-12.047 1.004-18.070 5.019-5.019-3.012-11.043-5.019-17.067-5.019-7.027 0-13.051 1.004-18.070 5.019-6.024-3.012-12.047-5.019-18.070-5.019-7.027 0-13.051 2.008-18.070 5.019-6.024-3.012-12.047-5.019-18.071-5.019-7.028 0-13.051 2.008-18.071 5.019zM178.698 201.913h54.212v-54.212h-54.212v54.212z" />
<glyph unicode="&#xe935;" glyph-name="erp-changelevel" data-tags="erp-changelevel" d="M256 480c-28.845 0-51.681-22.836-51.681-50.479 0-28.845 22.835-51.681 51.681-51.681s51.681 22.835 51.681 51.681c0 27.643-22.836 50.479-51.681 50.479zM423.061 403.080c-36.056 0-64.901-28.845-64.901-63.7s28.845-63.7 64.901-63.7c34.854 0 63.7 28.845 63.7 63.7s-28.845 63.7-63.7 63.7zM88.939 398.272c-25.239 0-45.672-20.432-45.672-45.671 0-26.442 20.432-46.873 45.672-46.873 26.442 0 46.873 20.432 46.873 46.873 0 25.24-20.432 45.672-46.873 45.672zM38.46 249.239c-21.634 0-38.46-16.827-38.46-38.46 0-20.432 16.826-38.46 38.46-38.46 20.432 0 38.46 18.028 38.46 38.46 0 21.634-18.028 38.46-38.46 38.46zM435.080 198.76c-42.065 0-76.92-34.855-76.92-76.92 0-43.267 34.855-76.92 76.92-76.92 43.267 0 76.92 33.653 76.92 76.92 0 42.065-33.653 76.92-76.92 76.92zM76.92 100.207c-16.826 0-31.249-13.221-31.249-30.047s14.422-30.047 31.249-30.047c16.826 0 30.047 13.221 30.047 30.047s-13.221 30.047-30.047 30.047zM204.319 18.479c-13.22 0-25.239-10.817-25.239-25.24s12.019-25.239 25.239-25.239c14.422 0 26.441 10.817 26.441 25.24s-12.019 25.24-26.441 25.24z" />
<glyph unicode="&#xe936;" glyph-name="erp-changelevelauto" data-tags="erp-changelevelauto" horiz-adv-x="517" d="M281.875 433.755c0-26.426-20.921-47.346-47.346-47.346s-47.346 20.921-47.346 47.346c0 25.325 20.921 46.245 47.346 46.245s47.346-20.921 47.346-46.245zM445.935 351.174c0-25.324-15.415-46.245-37.437-55.054h-41.841c-22.022 8.808-38.538 29.729-38.538 55.054 0 31.931 26.426 58.357 59.458 58.357 31.931 0 58.357-26.426 58.357-58.357zM124.421 363.286c0-24.224-18.718-42.942-42.942-42.942-23.123 0-41.841 18.719-41.841 42.942 0 23.123 18.718 41.841 41.841 41.841 24.224 0 42.942-18.719 42.942-41.841zM70.469 233.359c0-18.718-16.516-35.234-35.234-35.234-19.82 0-35.234 16.516-35.234 35.234 0 19.82 15.415 35.234 35.234 35.234 18.718 0 35.234-15.415 35.234-35.234zM97.996 104.534c0-15.415-12.112-27.527-27.527-27.527s-28.628 12.112-28.628 27.527c0 15.415 13.213 27.527 28.628 27.527s27.527-12.112 27.527-27.527zM187.183 10.942c-12.112 0-23.123 9.909-23.123 23.123s11.011 23.123 23.123 23.123v-5.505l7.708-11.011 11.011-20.921c-4.405-5.505-11.011-8.808-18.719-8.808zM481.17 94.623c0 2.202 0 8.808 0 14.314 0 4.404 0 11.011 0 13.213l30.83 24.224c4.404 2.202 4.404 4.404 4.404 6.606l-28.628 51.75c-2.202 2.202-4.404 4.404-8.808 2.202l-37.437-14.314c-9.909 5.505-16.516 12.112-26.426 14.314l-2.202 37.436c0 2.202-2.202 5.506-6.606 5.506h-61.66c-4.404 0-6.606-3.303-6.606-5.506l-2.202-37.436c-9.909-2.202-16.516-8.808-26.426-14.314l-37.437 14.314c-2.202 2.202-4.404 0-8.808-2.202l-28.628-51.75c0-2.202 0-4.404 2.202-8.808l30.83-24.224c0-2.202 0-8.808 0-14.314 0-4.404 0-11.011 0-13.213l-30.83-24.224c-2.202 0-2.202-2.202-2.202-4.404l28.628-51.75c2.202-2.202 4.404-4.404 8.808-2.202l37.437 14.314c9.909-5.505 16.516-12.112 26.426-14.314l2.202-37.437c0-2.202 2.202-4.404 4.404-4.404h63.863c2.202 0 4.404 2.202 4.404 4.404l2.202 37.437c9.909 2.202 16.516 8.808 26.426 14.314l37.437-14.314c2.202-2.202 4.404 0 8.808 2.202l30.83 51.75c0 2.202 0 4.404-2.202 9.909l-33.033 20.921zM375.466 51.682c-30.83 0-56.155 26.426-56.155 57.256 0 29.729 25.325 56.155 56.155 56.155s56.155-26.426 56.155-56.155c0-30.83-25.325-57.256-56.155-57.256z" />
<glyph unicode="&#xe937;" glyph-name="erp-checkprices-c" data-tags="erp-checkprices-c" d="M153.84 480c-28.845 0-51.681-22.836-51.681-50.479v-103.362l51.681-38.46v90.141c27.643 0 50.479 22.836 50.479 51.681h103.362c0-28.845 22.836-51.681 50.479-51.681v-90.141l51.681 38.46v103.361c0 2.404 0 6.010-1.202 9.615 0 0 0 0 0 1.202-1.202 2.404-1.202 6.010-2.404 8.413 0 0 0 0-1.202 1.202-1.202 2.404-2.404 4.808-3.606 7.212 0 1.202 0 1.202 0 1.202-2.404 2.404-4.808 4.808-6.010 7.212-1.202 0-1.202 0-1.202 0-2.404 2.404-4.808 4.808-7.212 6.010 0 0 0 0 0 0-2.404 2.404-6.010 3.606-8.413 4.808-6.010 2.404-13.221 3.606-20.432 3.606h-204.319zM256 377.841c-14.423 0-25.239-12.019-25.239-25.24 0-14.423 10.817-26.442 25.239-26.442s25.24 12.019 25.24 26.442c0 13.221-10.817 25.24-25.24 25.24zM76.92 373.033l-51.681-31.249c-15.624-9.615-25.239-25.24-25.239-43.267v-280.038c0-27.643 22.835-50.479 50.479-50.479h411.043c27.643 0 50.479 22.836 50.479 50.479v280.038c0 18.028-9.615 33.652-25.24 43.267l-51.681 31.249v-58.892l24.038-14.422-203.118-152.638-203.118 152.639 24.037 14.422v58.892zM256 300.92c-28.845 0-54.084-15.625-67.305-39.662l67.305-50.479 67.305 50.479c-13.221 24.037-38.46 39.662-67.305 39.662z" />
<glyph unicode="&#xe938;" glyph-name="erp-checkprices" data-tags="erp-checkprices" d="M153.84 480c-28.845 0-51.681-22.836-51.681-50.479v-103.362l51.681-38.46v90.141c27.643 0 50.479 22.836 50.479 51.681h103.362c0-28.845 22.836-51.681 50.479-51.681v-90.141l51.681 38.46v103.361c0 2.404 0 6.010-1.202 9.615 0 0 0 0 0 1.202-1.202 2.404-1.202 6.010-2.404 8.413 0 0 0 0-1.202 1.202-1.202 2.404-2.404 4.808-3.606 7.212 0 1.202 0 1.202 0 1.202-2.404 2.404-4.808 4.808-6.010 7.212-1.202 0-1.202 0-1.202 0-2.404 2.404-4.808 4.808-7.212 6.010 0 0 0 0 0 0-2.404 2.404-6.010 3.606-8.413 4.808-6.010 2.404-13.221 3.606-20.432 3.606h-204.319zM256 377.841c-14.423 0-25.239-12.019-25.239-25.24 0-14.423 10.817-26.442 25.239-26.442s25.24 12.019 25.24 26.442c0 13.221-10.817 25.24-25.24 25.24zM76.92 373.033l-51.681-31.249c-15.624-9.615-25.239-25.24-25.239-43.267v-280.038c0-27.643 22.835-50.479 50.479-50.479h411.043c27.643 0 50.479 22.836 50.479 50.479v280.038c0 18.028-9.615 33.652-25.24 43.267l-51.681 31.249v-58.892l24.038-14.422-203.118-152.638-203.118 152.639 24.037 14.422v58.892zM256 300.92c-28.845 0-54.084-15.625-67.305-39.662l67.305-50.479 67.305 50.479c-13.221 24.037-38.46 39.662-67.305 39.662z" />
<glyph unicode="&#xe939;" glyph-name="erp-closingoptions" data-tags="erp-closingoptions" horiz-adv-x="510" d="M256 480c-140.619 0-256-115.38-256-256s115.38-256 256-256c133.409 0 241.577 99.756 253.596 230.76h-50.479c-13.221-100.957-100.957-180.281-203.118-180.281-112.976 0-205.521 92.545-205.521 205.521s92.544 205.521 205.521 205.521c36.057 0 69.709-10.817 99.756-26.441l38.46 38.46c-40.864 22.836-86.535 38.46-138.216 38.46zM473.54 406.685l-237.972-228.357-94.948 94.949-36.056-36.057 131.005-131.005 18.028 18.028 256 245.183-36.057 37.258z" />
<glyph unicode="&#xe93a;" glyph-name="erp-collectionvoucher-c" data-tags="erp-collectionvoucher-c" horiz-adv-x="536" d="M387.152 480c-21.438 0-42.877-8.827-59.271-21.438 16.394-11.35 32.788-23.961 42.877-37.833l7.567 7.567h22.7v-95.843c0-13.872-2.522-27.744-5.045-40.354 47.921 5.045 85.753 45.399 85.753 93.32 0 51.704-42.877 94.582-94.582 94.582zM252.216 453.517c-66.838 0-121.064-54.226-121.064-121.064 0-68.098 54.227-121.064 121.064-121.064 68.099 0 121.064 52.966 121.064 121.064 0 66.838-52.966 121.064-121.064 121.064zM244.65 387.941h30.266v-109.715h-40.355v71.882h-27.744l37.833 37.833zM374.542 211.389c-12.611-2.522-27.744-10.089-46.66-22.7-15.133-10.089-47.921-29.005-50.443-29.005 2.522-2.522 15.133-2.522 15.133-2.522h2.522c30.266 0 51.704-23.961 51.704-51.704v-5.045c0-29.005-23.961-50.443-51.704-50.443h-55.488c-49.183 0-94.582 47.921-94.582 47.921s56.749-21.438 94.582-21.438h52.966c16.394 0 27.744 13.872 27.744 26.483 0 13.872-11.35 27.744-25.221 27.744-50.444 5.045-71.882 26.483-71.882 26.483s-45.399 35.31-61.793 42.877c-56.749 32.788-161.418-34.050-161.418-34.050l69.359-153.852c0 0 35.31 21.438 84.493 2.522 31.527-13.872 50.444-23.961 83.232-35.31 45.399-16.394 61.793-13.872 90.798 7.567 27.744 18.916 156.375 121.064 175.291 134.936 26.483 23.961 40.354 42.877 26.483 59.271-5.044 6.305-13.872 11.35-30.266 13.872-15.133 2.522-100.887 12.611-112.237 16.394-3.784 0-7.567 0-12.611 0z" />
<glyph unicode="&#xe93b;" glyph-name="erp-collectionvoucher" data-tags="erp-collectionvoucher" horiz-adv-x="536" d="M387.152 480c-21.438 0-42.877-8.827-59.271-21.438 16.394-11.35 32.788-23.961 42.877-37.833l7.567 7.567h22.7v-95.843c0-13.872-2.522-27.744-5.045-40.354 47.921 5.045 85.753 45.399 85.753 93.32 0 51.704-42.877 94.582-94.582 94.582zM252.216 453.517c-66.838 0-121.064-54.226-121.064-121.064 0-68.098 54.227-121.064 121.064-121.064 68.099 0 121.064 52.966 121.064 121.064 0 66.838-52.966 121.064-121.064 121.064zM244.65 387.941h30.266v-109.715h-40.355v71.882h-27.744l37.833 37.833zM374.542 211.389c-12.611-2.522-27.744-10.089-46.66-22.7-15.133-10.089-47.921-29.005-50.443-29.005 2.522-2.522 15.133-2.522 15.133-2.522h2.522c30.266 0 51.704-23.961 51.704-51.704v-5.045c0-29.005-23.961-50.443-51.704-50.443h-55.488c-49.183 0-94.582 47.921-94.582 47.921s56.749-21.438 94.582-21.438h52.966c16.394 0 27.744 13.872 27.744 26.483 0 13.872-11.35 27.744-25.221 27.744-50.444 5.045-71.882 26.483-71.882 26.483s-45.399 35.31-61.793 42.877c-56.749 32.788-161.418-34.050-161.418-34.050l69.359-153.852c0 0 35.31 21.438 84.493 2.522 31.527-13.872 50.444-23.961 83.232-35.31 45.399-16.394 61.793-13.872 90.798 7.567 27.744 18.916 156.375 121.064 175.291 134.936 26.483 23.961 40.354 42.877 26.483 59.271-5.044 6.305-13.872 11.35-30.266 13.872-15.133 2.522-100.887 12.611-112.237 16.394-3.784 0-7.567 0-12.611 0z" />
<glyph unicode="&#xe93c;" glyph-name="erp-collectionvoucherdelay-c" data-tags="erp-collectionvoucherdelay-c" horiz-adv-x="539" d="M440.505 393.514c0-38.054-25.37-70.343-61.117-81.874-5.766 0-11.531-1.153-17.298-2.307 2.307 11.532 4.613 24.216 4.613 35.748v87.639h-20.757l-6.919-6.919c-9.225 12.685-24.216 24.216-39.207 34.594 14.991 11.532 34.594 19.604 54.198 19.604 47.279 0 86.487-39.207 86.487-86.487zM341.334 345.081c0-14.991-2.307-28.829-6.919-41.514-40.361-12.685-74.955-36.901-100.325-69.189-1.153 0-2.306 0-3.459 0-61.117 0-110.703 48.433-110.703 110.703 0 61.117 49.586 110.702 110.703 110.702 62.271 0 110.702-49.586 110.702-110.702zM189.117 361.225h25.369v-65.73h36.901v100.325h-27.675l-34.594-34.594zM216.793 22.198c-29.982 10.378-47.279 19.603-76.108 32.288-44.973 17.298-77.261-2.307-77.261-2.307l-63.423 140.685c0 0 95.712 61.117 147.603 31.135 14.991-6.919 56.505-39.207 56.505-39.207s1.153-1.153 2.306-2.307c-8.072-20.757-12.684-43.82-12.684-66.883 0-1.153 0-1.153 0-2.307-29.982 5.766-61.117 17.298-61.117 17.298s28.829-29.982 63.423-40.361c2.306-24.216 10.379-47.279 21.91-68.036-1.153 0-1.153 0-1.153 0zM390.919-32c-80.721 0-147.603 65.73-147.603 147.603 0 80.721 66.883 147.603 147.603 147.603s147.604-66.883 147.604-147.603c0-81.874-66.883-147.603-147.603-147.603zM390.919 213.622c-54.198 0-98.018-44.973-98.018-98.018 0-54.198 43.82-99.171 98.018-99.171s98.018 44.973 98.018 99.171c0 53.045-43.82 98.018-98.018 98.018zM447.423 83.315l-36.901 34.594 29.982 50.738-27.675 14.991-41.514-71.495 54.198-54.198 21.91 25.37z" />
<glyph unicode="&#xe93d;" glyph-name="erp-collectionvoucherdelay" data-tags="erp-collectionvoucherdelay" horiz-adv-x="539" d="M440.505 393.514c0-38.054-25.37-70.343-61.117-81.874-5.766 0-11.531-1.153-17.298-2.307 2.307 11.532 4.613 24.216 4.613 35.748v87.639h-20.757l-6.919-6.919c-9.225 12.685-24.216 24.216-39.207 34.594 14.991 11.532 34.594 19.604 54.198 19.604 47.279 0 86.487-39.207 86.487-86.487zM341.334 345.081c0-14.991-2.307-28.829-6.919-41.514-40.361-12.685-74.955-36.901-100.325-69.189-1.153 0-2.306 0-3.459 0-61.117 0-110.703 48.433-110.703 110.703 0 61.117 49.586 110.702 110.703 110.702 62.271 0 110.702-49.586 110.702-110.702zM189.117 361.225h25.369v-65.73h36.901v100.325h-27.675l-34.594-34.594zM216.793 22.198c-29.982 10.378-47.279 19.603-76.108 32.288-44.973 17.298-77.261-2.307-77.261-2.307l-63.423 140.685c0 0 95.712 61.117 147.603 31.135 14.991-6.919 56.505-39.207 56.505-39.207s1.153-1.153 2.306-2.307c-8.072-20.757-12.684-43.82-12.684-66.883 0-1.153 0-1.153 0-2.307-29.982 5.766-61.117 17.298-61.117 17.298s28.829-29.982 63.423-40.361c2.306-24.216 10.379-47.279 21.91-68.036-1.153 0-1.153 0-1.153 0zM390.919-32c-80.721 0-147.603 65.73-147.603 147.603 0 80.721 66.883 147.603 147.603 147.603s147.604-66.883 147.604-147.603c0-81.874-66.883-147.603-147.603-147.603zM390.919 213.622c-54.198 0-98.018-44.973-98.018-98.018 0-54.198 43.82-99.171 98.018-99.171s98.018 44.973 98.018 99.171c0 53.045-43.82 98.018-98.018 98.018zM447.423 83.315l-36.901 34.594 29.982 50.738-27.675 14.991-41.514-71.495 54.198-54.198 21.91 25.37z" />
<glyph unicode="&#xe93e;" glyph-name="erp-collectionvouchererror-c" data-tags="erp-collectionvouchererror-c" horiz-adv-x="539" d="M440.505 393.514c0-38.054-25.37-70.343-61.117-81.874-5.766 0-11.531-1.153-17.298-2.307 2.307 11.532 4.613 24.216 4.613 35.748v87.639h-20.757l-6.919-6.919c-9.225 12.685-24.216 24.216-39.207 34.594 14.991 11.532 34.594 19.604 54.198 19.604 47.279 0 86.487-39.207 86.487-86.487zM341.334 345.081c0-14.991-2.307-28.829-6.919-41.514-40.361-12.685-74.955-36.901-100.325-69.189-1.153 0-2.306 0-3.459 0-61.117 0-110.703 48.433-110.703 110.703 0 61.117 49.586 110.702 110.703 110.702 62.271 0 110.702-49.586 110.702-110.702zM189.117 361.225h25.369v-65.73h36.901v100.325h-27.675l-34.594-34.594zM216.793 22.198c-29.982 10.378-47.279 19.603-76.108 32.288-44.973 17.298-77.261-2.307-77.261-2.307l-63.423 140.685c0 0 95.712 61.117 147.603 31.135 14.991-6.919 56.505-39.207 56.505-39.207s1.153-1.153 2.306-2.307c-8.072-20.757-12.684-43.82-12.684-66.883 0-1.153 0-1.153 0-2.307-29.982 5.766-61.117 17.298-61.117 17.298s28.829-29.982 63.423-40.361c2.306-24.216 10.379-47.279 21.91-68.036-1.153 0-1.153 0-1.153 0zM390.919 263.207c-80.721 0-147.603-66.883-147.603-147.603 0-81.874 66.883-147.603 147.603-147.603s147.604 65.73 147.604 147.603c0 80.721-66.883 147.603-147.603 147.603zM415.135 16.433h-48.433v49.586h48.433v-49.586zM415.135 90.234h-48.433v123.387h48.433v-123.387z" />
<glyph unicode="&#xe93f;" glyph-name="erp-collectionvouchererror" data-tags="erp-collectionvouchererror" horiz-adv-x="539" d="M440.505 393.514c0-38.054-25.37-70.343-61.117-81.874-5.766 0-11.531-1.153-17.298-2.307 2.307 11.532 4.613 24.216 4.613 35.748v87.639h-20.757l-6.919-6.919c-9.225 12.685-24.216 24.216-39.207 34.594 14.991 11.532 34.594 19.604 54.198 19.604 47.279 0 86.487-39.207 86.487-86.487zM341.334 345.081c0-14.991-2.307-28.829-6.919-41.514-40.361-12.685-74.955-36.901-100.325-69.189-1.153 0-2.306 0-3.459 0-61.117 0-110.703 48.433-110.703 110.703 0 61.117 49.586 110.702 110.703 110.702 62.271 0 110.702-49.586 110.702-110.702zM189.117 361.225h25.369v-65.73h36.901v100.325h-27.675l-34.594-34.594zM216.793 22.198c-29.982 10.378-47.279 19.603-76.108 32.288-44.973 17.298-77.261-2.307-77.261-2.307l-63.423 140.685c0 0 95.712 61.117 147.603 31.135 14.991-6.919 56.505-39.207 56.505-39.207s1.153-1.153 2.306-2.307c-8.072-20.757-12.684-43.82-12.684-66.883 0-1.153 0-1.153 0-2.307-29.982 5.766-61.117 17.298-61.117 17.298s28.829-29.982 63.423-40.361c2.306-24.216 10.379-47.279 21.91-68.036-1.153 0-1.153 0-1.153 0zM390.919 263.207c-80.721 0-147.603-66.883-147.603-147.603 0-81.874 66.883-147.603 147.603-147.603s147.604 65.73 147.604 147.603c0 80.721-66.883 147.603-147.603 147.603zM415.135 16.433h-48.433v49.586h48.433v-49.586zM415.135 90.234h-48.433v123.387h48.433v-123.387z" />
<glyph unicode="&#xe940;" glyph-name="erp-componentlist" data-tags="erp-componentlist" horiz-adv-x="466" d="M46.943 14.942c-25.108 0-46.943 20.742-46.943 45.851v55.676c0 14.192 14.192 24.017 28.384 21.834 12.008-5.459 22.925-7.642 30.567-7.642 32.751 0 57.859 26.2 57.859 58.951 0 31.659-25.108 57.859-57.859 57.859-7.642 0-18.558-2.184-30.567-6.55-14.192-5.458-28.384 6.55-28.384 20.742v55.676c0 25.108 21.834 46.942 46.943 46.942h98.251c6.55 0 13.1 8.733 8.733 16.375-6.55 13.1-14.192 29.476-14.192 41.484 0 32.75 26.201 57.859 58.951 57.859s57.859-25.108 57.859-57.859c0-12.009-6.55-28.384-14.192-41.484-4.367-7.642 0-16.375 9.825-16.375h74.234c26.2 0 46.942-21.834 46.942-46.942v-45.851c-21.834 9.825-44.759 16.375-69.868 16.375-87.335 0-156.111-68.776-156.111-156.111 0-46.942 20.742-88.426 53.493-116.81h-153.928zM466.149-1.433l-62.226 62.226c10.917 18.558 17.467 40.392 17.467 62.226 0 62.226-48.034 111.352-110.26 111.352s-111.352-49.126-111.352-111.352c0-62.226 49.126-110.26 111.352-110.26 21.834 0 43.668 6.55 62.226 17.467l62.226-62.226 30.567 30.567zM311.13 56.426c-38.209 0-66.593 29.476-66.593 66.593 0 38.209 28.384 66.593 66.593 66.593 37.118 0 66.593-28.384 66.593-66.593 0-37.118-29.476-66.593-66.593-66.593z" />
<glyph unicode="&#xe941;" glyph-name="erp-components-c" data-tags="erp-components-c" horiz-adv-x="411" d="M411.043 300.92c0 27.643-22.836 51.681-51.681 51.681h-81.728c-10.817 0-15.625 9.615-10.817 18.028 8.413 14.422 15.625 32.45 15.625 45.671 0 36.056-27.643 63.7-63.7 63.7s-64.901-27.643-64.901-63.7c0-13.221 8.413-31.249 15.625-45.671 4.808-8.413-2.404-18.028-9.615-18.028h-108.169c-27.643 0-51.681-24.038-51.681-51.681v-61.296c0-15.625 15.624-28.845 31.249-22.836 13.22 4.808 25.24 7.212 33.653 7.212 36.056 0 63.7-28.845 63.7-63.7 0-36.056-27.643-64.901-63.7-64.901-8.413 0-20.432 2.404-33.653 8.413-15.624 2.404-31.249-8.413-31.249-24.038v-61.296c0-27.643 24.038-50.479 51.681-50.479h307.681c28.845 0 51.681 22.836 51.681 50.479v282.442z" />
<glyph unicode="&#xe942;" glyph-name="erp-components" data-tags="erp-components" horiz-adv-x="411" d="M411.043 300.92c0 27.643-22.836 51.681-51.681 51.681h-81.728c-10.817 0-15.625 9.615-10.817 18.028 8.413 14.422 15.625 32.45 15.625 45.671 0 36.056-27.643 63.7-63.7 63.7s-64.901-27.643-64.901-63.7c0-13.221 8.413-31.249 15.625-45.671 4.808-8.413-2.404-18.028-9.615-18.028h-108.169c-27.643 0-51.681-24.038-51.681-51.681v-61.296c0-15.625 15.624-28.845 31.249-22.836 13.22 4.808 25.24 7.212 33.653 7.212 36.056 0 63.7-28.845 63.7-63.7 0-36.056-27.643-64.901-63.7-64.901-8.413 0-20.432 2.404-33.653 8.413-15.624 2.404-31.249-8.413-31.249-24.038v-61.296c0-27.643 24.038-50.479 51.681-50.479h307.681c28.845 0 51.681 22.836 51.681 50.479v282.442z" />
<glyph unicode="&#xe943;" glyph-name="erp-configurator" data-tags="erp-configurator" horiz-adv-x="511" d="M165.47 480l-45.565-55.157-71.944 7.195 7.194-71.944-55.157-45.565 55.157-46.764-7.194-70.744 71.944 7.195 45.565-56.356 38.37 46.764-93.527 93.527c-10.791 10.791-10.791 26.38 0 35.972l45.564 45.564c9.593 10.792 25.18 10.792 35.972 0l93.527-93.527 46.764 38.37-56.356 45.565 7.195 71.944-70.745-7.195-46.763 55.157zM285.377 276.159l-81.536-81.536 220.627-220.627c7.195-8.394 22.782-7.194 33.574 2.398l45.565 45.565c9.593 10.791 9.593 26.38 0 35.972l-218.229 218.229zM447.25 391.269l-15.588-35.972-35.972-15.588 35.972-15.588 15.588-35.972 15.588 35.972 35.972 15.588-35.972 15.588-15.588 35.972zM88.731 137.068l-22.782-55.157-56.356-23.981 56.356-22.782 22.782-56.356 23.981 56.356 55.157 22.782-55.157 23.981-23.981 55.157z" />
<glyph unicode="&#xe944;" glyph-name="erp-containerpackage" data-tags="erp-containerpackage" horiz-adv-x="732" d="M70.078 480c-2.861 0-5.721-2.861-8.581-5.721l-57.206-70.078c0-1.43 0-1.43 0-1.43l-1.43-1.43c-1.43-2.861-2.861-5.721-2.861-8.581v-410.458c0-7.151 7.151-14.301 14.302-14.301h44.335c8.581 0 14.301 7.151 14.301 14.301h586.369c0-7.151 5.721-14.301 14.302-14.301h44.335c7.151 0 14.302 7.151 14.302 14.301v410.458c0 2.861-1.43 5.721-2.861 8.581l-1.43 1.43c0 0 0 0 0 0l-57.207 71.508c-2.861 4.291-7.151 5.721-11.442 5.721h-30.034c-7.151 0-14.302-5.721-14.302-14.301h-497.699c0 8.581-7.151 14.301-14.302 14.301h-30.034c0 0 0 0-1.43 0 0 0 0 0-1.43 0zM80.090 451.397h7.151c0-8.581 7.151-14.301 15.732-14.301h526.302c8.581 0 15.732 5.72 15.732 14.301h7.151l35.754-44.335h-14.302c-8.581 0-14.302-5.721-14.302-14.302h-586.369c0 8.581-5.721 14.302-14.302 14.302h-14.302l35.754 44.335zM28.604 378.458h15.732c0-8.581 5.721-15.732 14.302-15.732h614.972c8.581 0 14.302 7.151 14.302 15.732h15.732v-381.854h-15.732c0 8.581-5.721 15.732-14.302 15.732h-614.972c-8.581 0-14.302-7.151-14.302-15.732h-15.732v381.854zM101.542 334.123c-1.43 0-1.43 0-2.861 0-5.721-1.43-11.442-7.151-11.442-14.301v-264.581c0-4.291 2.861-10.011 8.581-12.872 4.29-1.43 10.011-1.43 14.302 0 4.29 2.861 7.151 8.581 7.151 12.872v264.581c0 4.291-1.43 7.151-4.29 10.011-2.861 4.291-7.151 5.721-11.442 4.291zM188.782 334.123c0 0-1.43 0-1.43 0-7.151-1.43-11.441-7.151-11.441-14.301v-264.581c0-4.291 2.861-10.011 7.151-12.872 4.291-1.43 10.011-1.43 14.302 0 4.291 2.861 7.151 8.581 7.151 12.872v264.581c0 4.291-1.43 7.151-4.291 10.011-2.861 4.291-7.151 5.721-11.441 4.291zM277.452 334.123c-1.43 0-1.43 0-2.861 0-5.721-1.43-11.442-7.151-11.442-14.301v-264.581c0-4.291 2.861-10.011 7.151-12.872 5.721-1.43 11.442-1.43 15.732 0 4.291 2.861 7.151 8.581 7.151 12.872v264.581c0 4.291-1.43 7.151-4.291 10.011-4.291 4.291-7.151 5.721-11.442 4.291zM364.692 334.123c0 0-1.43 0-1.43 0-7.151-1.43-11.442-7.151-11.442-14.301v-264.581c0-4.291 2.861-10.011 7.151-12.872 4.291-1.43 10.011-1.43 14.301 0 4.291 2.861 7.151 8.581 7.151 12.872v264.581c0 4.291-1.43 7.151-4.291 10.011-2.861 4.291-7.151 5.721-11.442 4.291zM451.933 334.123c0 0 0 0-1.43 0-7.151-1.43-11.442-7.151-11.442-14.301v-264.581c0-4.291 2.861-10.011 7.151-12.872 4.291-1.43 10.011-1.43 15.732 0 4.291 2.861 7.151 8.581 7.151 12.872v264.581c0 4.291-1.43 7.151-5.721 10.011-2.861 4.291-7.151 5.721-11.442 4.291zM540.604 334.123c-1.43 0-1.43 0-1.43 0-7.151-1.43-11.442-7.151-11.442-14.301v-264.581c0-4.291 2.861-10.011 7.151-12.872 4.29-1.43 10.011-1.43 14.302 0 4.29 2.861 7.151 8.581 7.151 12.872v264.581c0 4.291-1.43 7.151-4.29 10.011-2.861 4.291-7.151 5.721-11.442 4.291zM627.843 334.123c0 0-1.43 0-1.43 0-7.151-1.43-11.442-7.151-11.442-14.301v-264.581c0-4.291 2.861-10.011 7.151-12.872 4.29-1.43 10.011-1.43 14.302 0 5.721 2.861 8.581 8.581 8.581 12.872v264.581c0 4.291-2.861 7.151-5.721 10.011-2.861 4.291-7.151 5.721-11.442 4.291z" />
<glyph unicode="&#xe945;" glyph-name="erp-costaccounting" data-tags="erp-costaccounting" horiz-adv-x="505" d="M504.788 480l-135.812-20.432 39.662-39.662-78.122-78.122-22.836 21.634-19.23 16.827-16.827-18.028-86.535-88.939-38.46 38.46-18.028-18.028-128.601-126.197 36.056-36.057 109.371 108.169 39.662-39.662 18.028 19.23 87.737 90.141 22.836-21.634 18.028-16.827 112.976 112.976 39.662-39.662 20.432 135.812zM427.868 275.681v-307.681h51.681v307.681h-51.681zM325.709 224v-256h51.681v256h-51.681zM223.549 172.319v-204.319h50.479v204.319h-50.479zM120.188 121.841v-153.841h51.681v153.841h-51.681zM18.028 70.159v-102.159h51.681v102.159h-51.681z" />
<glyph unicode="&#xe946;" glyph-name="erp-costcenterdisabled" data-tags="erp-costcenterdisabled" horiz-adv-x="509" d="M478.689 340.588l-40.714 40.714-115.971-115.971-41.947 38.246-108.569-111.036-39.48 40.714-87.595-85.127-37.012 37.012 124.607 122.14 39.48-39.48 106.101 109.803 43.18-39.479 80.193 80.193-40.714 40.714 139.412 20.974-20.974-139.412zM473.754 270.265v-197.398h-53.050v197.398h53.050zM368.887 217.214v-144.347h-53.050v144.347h53.050zM262.786 164.164v-91.296h-17.273c-13.571 0-25.909-4.935-34.544-13.571v104.868h51.817zM157.918 112.347v-132.010h-53.050v132.010h53.050zM53.050 59.296v-78.959h-53.050v78.959h53.050zM245.513 19.817h262.785v-51.817h-262.786v51.817z" />
<glyph unicode="&#xe947;" glyph-name="erp-costs-c" data-tags="erp-costs-c" d="M409.841 480c-56.488 0-102.159-16.827-102.159-38.46 0-20.432 45.671-38.46 102.159-38.46s102.159 18.028 102.159 38.46c0 21.634-45.671 38.46-102.159 38.46zM307.681 429.521v-60.094c0-24.038 45.671-43.268 102.159-43.268s102.159 19.23 102.159 43.267v60.094c0-24.037-45.671-43.267-102.159-43.267s-102.159 19.23-102.159 43.267zM102.159 403.080c-56.489 0-102.159-16.826-102.159-38.46 0-20.432 45.672-38.46 102.159-38.46s102.159 18.028 102.159 38.46c0 21.634-45.672 38.46-102.159 38.46zM0 352.601v-60.094c0-24.037 45.672-43.267 102.159-43.267 9.615 0 19.23 1.202 27.643 2.404 9.615 22.836 38.46 37.258 74.517 44.469v56.488c0-24.038-45.672-43.267-102.159-43.267s-102.159 19.23-102.159 43.267zM307.681 352.601v-56.488c36.056-7.212 64.901-21.634 74.517-44.469 8.413-1.202 18.028-2.404 27.643-2.404 56.488 0 102.159 19.23 102.159 43.267v60.094c0-24.038-45.671-43.267-102.159-43.267s-102.159 19.23-102.159 43.267zM0 275.681v-60.094c0-24.038 45.672-43.267 102.159-43.267 8.413 0 18.028 1.202 25.24 2.404v60.094c-7.212-1.202-16.826-2.404-25.239-2.404-56.489 0-102.159 19.23-102.159 43.267zM256 275.681c-56.488 0-102.159-18.028-102.159-38.46 0-21.634 45.672-38.46 102.159-38.46s102.159 16.827 102.159 38.46c0 20.432-45.671 38.46-102.159 38.46zM512 275.681c0-24.038-45.671-43.268-102.159-43.268-8.413 0-16.827 1.202-25.24 2.404v-60.094c8.413-1.202 16.827-2.404 25.24-2.404 56.488 0 102.159 19.23 102.159 43.267v60.094zM153.84 224v-60.094c0-24.038 45.672-42.065 102.16-42.065s102.159 18.028 102.159 42.065v60.094c0-24.038-45.671-42.065-102.159-42.065s-102.159 18.028-102.159 42.065zM0 198.76v-60.094c0-24.038 45.672-43.267 102.159-43.267 8.413 0 18.028 1.202 25.24 2.404v60.094c-7.212-1.202-16.826-2.404-25.239-2.404-56.489 0-102.159 19.23-102.159 43.267zM512 198.76c0-24.038-45.671-43.267-102.159-43.267-8.413 0-16.827 1.202-25.24 2.404v-60.094c8.413-1.202 16.827-2.404 25.24-2.404 56.488 0 102.159 19.23 102.159 43.267v60.094zM153.84 147.080v-60.094c0-24.038 45.672-42.065 102.16-42.065s102.159 18.028 102.159 42.065v60.094c0-24.038-45.671-42.065-102.159-42.065s-102.159 18.028-102.159 42.065zM0 121.841v-60.094c0-24.038 45.672-43.267 102.159-43.267 8.413 0 18.028 1.202 25.24 2.404v60.094c-7.212-1.202-16.826-2.404-25.239-2.404-56.489 0-102.159 19.23-102.159 43.267zM512 121.841c0-24.038-45.671-43.267-102.159-43.267-8.413 0-16.827 1.202-25.24 2.404v-60.094c8.413-1.202 16.827-2.404 25.24-2.404 56.488 0 102.159 19.23 102.159 43.267v60.094zM153.84 70.159v-60.094c0-24.038 45.672-42.065 102.16-42.065s102.159 18.028 102.159 42.065v60.094c0-24.038-45.671-42.065-102.159-42.065s-102.159 18.028-102.159 42.065z" />
<glyph unicode="&#xe948;" glyph-name="erp-costs" data-tags="erp-costs" d="M409.841 480c-56.488 0-102.159-16.827-102.159-38.46 0-20.432 45.671-38.46 102.159-38.46s102.159 18.028 102.159 38.46c0 21.634-45.671 38.46-102.159 38.46zM307.681 429.521v-60.094c0-24.038 45.671-43.268 102.159-43.268s102.159 19.23 102.159 43.267v60.094c0-24.037-45.671-43.267-102.159-43.267s-102.159 19.23-102.159 43.267zM102.159 403.080c-56.489 0-102.159-16.826-102.159-38.46 0-20.432 45.672-38.46 102.159-38.46s102.159 18.028 102.159 38.46c0 21.634-45.672 38.46-102.159 38.46zM0 352.601v-60.094c0-24.037 45.672-43.267 102.159-43.267 9.615 0 19.23 1.202 27.643 2.404 9.615 22.836 38.46 37.258 74.517 44.469v56.488c0-24.038-45.672-43.267-102.159-43.267s-102.159 19.23-102.159 43.267zM307.681 352.601v-56.488c36.056-7.212 64.901-21.634 74.517-44.469 8.413-1.202 18.028-2.404 27.643-2.404 56.488 0 102.159 19.23 102.159 43.267v60.094c0-24.038-45.671-43.267-102.159-43.267s-102.159 19.23-102.159 43.267zM0 275.681v-60.094c0-24.038 45.672-43.267 102.159-43.267 8.413 0 18.028 1.202 25.24 2.404v60.094c-7.212-1.202-16.826-2.404-25.239-2.404-56.489 0-102.159 19.23-102.159 43.267zM256 275.681c-56.488 0-102.159-18.028-102.159-38.46 0-21.634 45.672-38.46 102.159-38.46s102.159 16.827 102.159 38.46c0 20.432-45.671 38.46-102.159 38.46zM512 275.681c0-24.038-45.671-43.268-102.159-43.268-8.413 0-16.827 1.202-25.24 2.404v-60.094c8.413-1.202 16.827-2.404 25.24-2.404 56.488 0 102.159 19.23 102.159 43.267v60.094zM153.84 224v-60.094c0-24.038 45.672-42.065 102.16-42.065s102.159 18.028 102.159 42.065v60.094c0-24.038-45.671-42.065-102.159-42.065s-102.159 18.028-102.159 42.065zM0 198.76v-60.094c0-24.038 45.672-43.267 102.159-43.267 8.413 0 18.028 1.202 25.24 2.404v60.094c-7.212-1.202-16.826-2.404-25.239-2.404-56.489 0-102.159 19.23-102.159 43.267zM512 198.76c0-24.038-45.671-43.267-102.159-43.267-8.413 0-16.827 1.202-25.24 2.404v-60.094c8.413-1.202 16.827-2.404 25.24-2.404 56.488 0 102.159 19.23 102.159 43.267v60.094zM153.84 147.080v-60.094c0-24.038 45.672-42.065 102.16-42.065s102.159 18.028 102.159 42.065v60.094c0-24.038-45.671-42.065-102.159-42.065s-102.159 18.028-102.159 42.065zM0 121.841v-60.094c0-24.038 45.672-43.267 102.159-43.267 8.413 0 18.028 1.202 25.24 2.404v60.094c-7.212-1.202-16.826-2.404-25.239-2.404-56.489 0-102.159 19.23-102.159 43.267zM512 121.841c0-24.038-45.671-43.267-102.159-43.267-8.413 0-16.827 1.202-25.24 2.404v-60.094c8.413-1.202 16.827-2.404 25.24-2.404 56.488 0 102.159 19.23 102.159 43.267v60.094zM153.84 70.159v-60.094c0-24.038 45.672-42.065 102.16-42.065s102.159 18.028 102.159 42.065v60.094c0-24.038-45.671-42.065-102.159-42.065s-102.159 18.028-102.159 42.065z" />
<glyph unicode="&#xe949;" glyph-name="erp-crossreferences" data-tags="erp-crossreferences" horiz-adv-x="565" d="M179.924 480l51.924-51.925h179.925c28.981 0 51.925-22.943 51.925-51.924v-25.358h-361.057v-25.359h370.717c18.113 0 31.396-9.66 37.434-22.943-6.038 1.207-12.075 1.207-18.113 1.207-33.812 0-64-12.075-88.151-36.226l-51.925-51.925c-9.661-7.245-16.906-19.321-21.736-28.981-9.661-6.038-22.944-13.283-30.188-22.944l-33.812-33.812c-16.905-18.113-27.774-39.849-32.604-62.793h-183.547c-3.623 0-6.038 0-9.66 1.207-3.623 0-6.038 2.415-9.66 3.623 0 0 0 0 0 0-19.321 7.245-31.396 25.358-31.396 47.094v309.132c0 28.981 22.944 51.925 50.717 51.925h129.208zM542.188 231.245c-30.188 30.188-76.076 30.188-103.849 0l-51.925-51.925c-9.661-9.661-14.49-19.321-19.321-31.396-12.075-2.415-24.151-9.661-33.812-19.321l-32.604-35.019c-28.981-28.981-28.981-76.076 0-102.642 30.188-30.189 76.075-30.189 103.849 0l51.925 50.717c9.661 9.661 14.49 20.529 19.321 32.604 12.075 2.415 24.151 9.661 33.812 19.321l35.019 35.019c26.566 28.981 26.566 76.076-2.415 102.642zM507.17 162.415l-36.226-36.226c-4.83 7.245-7.245 14.49-14.49 19.321l-35.019-35.019c9.661-9.661 9.661-24.151 0-33.812l-51.925-51.925c-9.661-9.661-24.151-9.661-33.812 0s-9.661 24.151 0 35.019l36.226 36.226c2.415-7.245 7.245-14.49 14.49-19.321l35.019 33.812c-9.661 10.868-9.661 25.358 0 35.019l51.925 51.925c9.661 9.661 24.151 9.661 33.812 0s9.661-25.358 0-35.019z" />
<glyph unicode="&#xe94a;" glyph-name="erp-custsupp" data-tags="erp-custsupp" horiz-adv-x="514" d="M256.75 480c-70.569 0-127.625-57.055-127.625-127.625 0-72.070 57.055-129.126 127.625-129.126s127.625 57.055 127.625 129.126c0 70.569-57.055 127.625-127.625 127.625zM225.22 158.686c-169.666-13.513-225.22-127.625-225.22-127.625v-63.061h256.75l-31.531 31.531v96.094h63.062v-96.094l-31.531-31.531h256.75v63.062c0 0-55.555 114.111-225.22 127.625v-31.531h-63.061v31.531z" />
<glyph unicode="&#xe94b;" glyph-name="erp-dbext-master" data-tags="erp-dbext-master" horiz-adv-x="411" d="M51.681 480c-27.643 0-51.681-22.836-51.681-50.479v-411.043c0-27.643 24.038-50.479 51.681-50.479h307.681c27.643 0 51.681 22.836 51.681 50.479v411.043c0 27.643-24.038 50.479-51.681 50.479h-307.681zM51.681 429.521h307.681v-307.681h-307.681v307.681zM205.521 377.841l-37.258-102.159-64.901 50.479 25.239-127.399h153.84l25.24 127.399-66.103-50.479-36.056 102.159zM51.681 70.159h51.681v-51.681h-51.681v51.681zM153.84 70.159h205.521v-51.681h-205.521v51.681z" />
<glyph unicode="&#xe94c;" glyph-name="erp-dbext-slave" data-tags="erp-dbext-slave" horiz-adv-x="462" d="M51.681 480c-28.845 0-51.681-22.836-51.681-50.479v-411.043c0-27.643 22.835-50.479 51.681-50.479h307.681c28.845 0 51.681 22.836 51.681 50.479v229.559l-38.46-37.258c-3.606-4.808-8.413-8.413-13.221-12.019v-76.92h-307.681v307.681h177.878l51.681 50.479h-229.559zM384.601 480c-19.23 0-39.662-7.212-54.084-21.634l-32.45-33.652 36.057-36.057-37.258-37.258-36.056 36.057-32.451-32.451c-30.047-30.047-30.047-78.122 0-108.169 14.422-15.625 34.855-22.835 54.085-22.835s39.662 7.212 54.084 22.835l32.45 32.451-36.057 36.056 38.46 38.46-36.056 36.057 31.249 31.249c10.817 10.817 26.442 10.817 36.057 0 10.817-9.615 10.817-25.24 0-36.057l-31.249-31.249 36.057-36.056 32.45 31.249c28.845 30.047 28.845 79.324 0 109.371-15.625 14.422-34.854 21.634-55.286 21.634zM296.864 351.399l36.056-36.057-32.45-32.45c-4.808-4.808-10.817-7.212-18.028-7.212s-13.221 2.404-18.028 7.212c-10.817 9.615-10.817 26.441 0 36.056l32.45 32.451zM51.681 70.159h51.681v-51.681h-51.681v51.681zM153.84 70.159h205.521v-51.681h-205.521v51.681z" />
<glyph unicode="&#xe94d;" glyph-name="erp-declaration-c" data-tags="erp-declaration-c" d="M50.479 480c-27.643 0-50.479-22.836-50.479-50.479v-334.122c0-27.643 22.835-50.479 50.479-50.479h128.601v-76.92l76.92 76.92 76.92-76.92v76.92h128.601c27.643 0 50.479 22.836 50.479 50.479v334.122c0 27.643-22.836 50.479-50.479 50.479h-411.043zM50.479 429.521h411.043v-334.122h-128.601v48.075c0 37.258-25.24 72.113-61.296 79.324-49.277 9.615-92.544-28.845-92.544-75.719v-51.681h-128.601v334.122zM102.159 377.841v-51.681h307.681v51.681h-307.681zM102.159 300.92v-51.681h307.681v51.681h-307.681zM256 172.319c14.423 0 25.24-10.817 25.24-25.24s-10.817-25.24-25.24-25.24c-14.423 0-25.239 10.817-25.239 25.24s10.817 25.24 25.239 25.24z" />
<glyph unicode="&#xe94e;" glyph-name="erp-declaration" data-tags="erp-declaration" d="M50.479 480c-27.643 0-50.479-22.836-50.479-50.479v-334.122c0-27.643 22.835-50.479 50.479-50.479h128.601v-76.92l76.92 76.92 76.92-76.92v76.92h128.601c27.643 0 50.479 22.836 50.479 50.479v334.122c0 27.643-22.836 50.479-50.479 50.479h-411.043zM50.479 429.521h411.043v-334.122h-128.601v48.075c0 37.258-25.24 72.113-61.296 79.324-49.277 9.615-92.544-28.845-92.544-75.719v-51.681h-128.601v334.122zM102.159 377.841v-51.681h307.681v51.681h-307.681zM102.159 300.92v-51.681h307.681v51.681h-307.681zM256 172.319c14.423 0 25.24-10.817 25.24-25.24s-10.817-25.24-25.24-25.24c-14.423 0-25.239 10.817-25.239 25.24s10.817 25.24 25.239 25.24z" />
</font>
</defs>
</svg>
